<svg id="Layer_1" data-name="Layer 1" xmlns="http://www.w3.org/2000/svg" viewBox="0 0 183 68.51"><defs><style>.cls-1{fill:#fff;}</style></defs><title>logo-ocean-plus-library-new</title><g id="Homepage"><g id="Page-1"><path id="Fill-1" class="cls-1" d="M19.55,30.55a10.94,10.94,0,0,0,4.46-.9,10.09,10.09,0,0,0,3.48-2.46,11.67,11.67,0,0,0,2.26-3.65,12.08,12.08,0,0,0,.81-4.44V19a12.3,12.3,0,0,0-.81-4.46,11,11,0,0,0-2.31-3.68A10.9,10.9,0,0,0,23.9,8.37a10.77,10.77,0,0,0-4.45-.92,10.83,10.83,0,0,0-4.48.9,10.11,10.11,0,0,0-3.46,2.46,11.49,11.49,0,0,0-2.26,3.65,12.08,12.08,0,0,0-.81,4.44V19a12.3,12.3,0,0,0,.81,4.46,11.07,11.07,0,0,0,5.82,6.17,10.75,10.75,0,0,0,4.48.92M19.45,38a19.91,19.91,0,0,1-7.81-1.5,19.21,19.21,0,0,1-6.16-4,18,18,0,0,1-4-6A18.89,18.89,0,0,1,0,19.1V19a18.54,18.54,0,0,1,1.47-7.37A18.72,18.72,0,0,1,11.72,1.5,20.08,20.08,0,0,1,19.55,0a19.91,19.91,0,0,1,7.81,1.5,19.21,19.21,0,0,1,6.16,4,18,18,0,0,1,4,6A18.89,18.89,0,0,1,39,18.9V19a18.54,18.54,0,0,1-1.47,7.37A18.72,18.72,0,0,1,27.28,36.5,20.08,20.08,0,0,1,19.45,38"/><path id="Fill-3" class="cls-1" d="M57.57,38a14.34,14.34,0,0,1-10.45-4.38,14.89,14.89,0,0,1-3-4.73A15.32,15.32,0,0,1,43,23.11V23a15.55,15.55,0,0,1,1.1-5.81,15.13,15.13,0,0,1,3-4.78,14.19,14.19,0,0,1,4.62-3.23A14.57,14.57,0,0,1,57.67,8a14.8,14.8,0,0,1,6.58,1.29,14.7,14.7,0,0,1,4.59,3.55L64,18.22a13.3,13.3,0,0,0-2.8-2.32A6.84,6.84,0,0,0,57.62,15a6,6,0,0,0-2.74.62,6.85,6.85,0,0,0-2.14,1.69,7.87,7.87,0,0,0-1.41,2.5,9.23,9.23,0,0,0-.5,3V23a9.63,9.63,0,0,0,.5,3.12,7.57,7.57,0,0,0,1.43,2.53A7,7,0,0,0,55,30.34a6.76,6.76,0,0,0,2.92.62,6.94,6.94,0,0,0,3.47-.84,14.23,14.23,0,0,0,2.95-2.23L69,32.73a17.92,17.92,0,0,1-4.65,3.79A13.63,13.63,0,0,1,57.57,38"/><path id="Fill-5" class="cls-1" d="M93.12,20.69a8.08,8.08,0,0,0-1.91-4.44,5.28,5.28,0,0,0-4.1-1.69A5.42,5.42,0,0,0,83,16.23a8.35,8.35,0,0,0-2,4.46ZM87.9,38A16.06,16.06,0,0,1,82,36.92a13.54,13.54,0,0,1-4.74-3.06,14.13,14.13,0,0,1-3.11-4.7A15.67,15.67,0,0,1,73,23.11V23a16.35,16.35,0,0,1,1-5.81,14.83,14.83,0,0,1,2.9-4.78A14.41,14.41,0,0,1,93.28,9.29a12.56,12.56,0,0,1,4.34,3.47,14.52,14.52,0,0,1,2.55,5,20.85,20.85,0,0,1,.83,5.89q0,.48,0,1c0,.36,0,.73-.08,1.13H81A6.93,6.93,0,0,0,83.46,30,7.19,7.19,0,0,0,88,31.44a8.86,8.86,0,0,0,3.62-.7,12,12,0,0,0,3.3-2.26l4.63,4.14a14.4,14.4,0,0,1-4.89,4A15.24,15.24,0,0,1,87.9,38Z"/><path id="Fill-7" class="cls-1" d="M117.13,32.48a7.1,7.1,0,0,0,4.56-1.36,4.36,4.36,0,0,0,1.72-3.57V26.13a12,12,0,0,0-2.35-.76,12.26,12.26,0,0,0-2.77-.29,7.21,7.21,0,0,0-4.06,1A3.27,3.27,0,0,0,112.75,29v.11A3,3,0,0,0,114,31.59a5.15,5.15,0,0,0,3.16.89M114.7,38a12.55,12.55,0,0,1-3.77-.55,8.8,8.8,0,0,1-3.08-1.66,7.85,7.85,0,0,1-2.09-2.7,8.51,8.51,0,0,1-.76-3.71v-.1a8.83,8.83,0,0,1,.84-4,7.84,7.84,0,0,1,2.35-2.79,10.51,10.51,0,0,1,3.59-1.65,17.88,17.88,0,0,1,4.61-.55,19.85,19.85,0,0,1,3.77.31,23.8,23.8,0,0,1,3.14.84V21a4.79,4.79,0,0,0-1.53-3.84,6.82,6.82,0,0,0-4.53-1.31,19.12,19.12,0,0,0-4.09.39,28.69,28.69,0,0,0-3.72,1.13l-2-6.09a30.7,30.7,0,0,1,4.85-1.63A25.65,25.65,0,0,1,118.4,9a17.41,17.41,0,0,1,5.66.81,10.21,10.21,0,0,1,3.88,2.34A9.39,9.39,0,0,1,130.26,16a16.72,16.72,0,0,1,.74,5.13V37.47h-7.75v-3a11.24,11.24,0,0,1-3.54,2.6,11.63,11.63,0,0,1-5,1"/><path id="Fill-9" class="cls-1" d="M138,8.53h8.05V12.6a17.58,17.58,0,0,1,1.51-1.74,10.46,10.46,0,0,1,1.82-1.47,8.85,8.85,0,0,1,2.23-1A9.33,9.33,0,0,1,154.36,8a9,9,0,0,1,7.12,2.82c1.68,1.87,2.52,4.46,2.52,7.75V37H156V21.16a6.39,6.39,0,0,0-1.27-4.32,4.54,4.54,0,0,0-3.6-1.46,4.78,4.78,0,0,0-3.68,1.46,6.15,6.15,0,0,0-1.35,4.32V37H138Z"/><polygon id="Fill-11" class="cls-1" points="172.75 14.22 167 14.22 167 9.75 172.75 9.75 172.75 4 177.25 4 177.68 9.75 183 9.75 183 14.22 177.25 14.22 177.25 20 172.75 20 172.75 14.22"/><path class="cls-1" d="M88.49,44.62H91V60.8h9.22V63H88.49Z"/><path class="cls-1" d="M102.44,44.62h2.29v2.55h-2.29Zm0,5h2.29V63h-2.29Z"/><path class="cls-1" d="M107.94,44.56h2.19v6.66a5,5,0,0,1,1.77-1.47,5.06,5.06,0,0,1,2.23-.5A5.25,5.25,0,0,1,118.21,51,7.29,7.29,0,0,1,119.77,56a8.64,8.64,0,0,1-1.55,5.27A5,5,0,0,1,114,63.42a4.4,4.4,0,0,1-2.59-.74,6,6,0,0,1-1.34-1.4V63h-2.08ZM116.55,60a7.21,7.21,0,0,0,.91-3.83,6.3,6.3,0,0,0-.91-3.5,3,3,0,0,0-2.68-1.39,3.76,3.76,0,0,0-2.71,1.14A5.12,5.12,0,0,0,110,56.15a8.18,8.18,0,0,0,.48,3.06,3.29,3.29,0,0,0,3.32,2.22A3,3,0,0,0,116.55,60Z"/><path class="cls-1" d="M122.43,49.6h2.14v2.31a5.18,5.18,0,0,1,1.29-1.64,3.31,3.31,0,0,1,2.36-1h.22l.51,0v2.38a1.8,1.8,0,0,0-.37-.05l-.37,0a3.21,3.21,0,0,0-2.61,1.1,3.82,3.82,0,0,0-.92,2.52V63h-2.25Z"/><path class="cls-1" d="M138.08,54.88a1.23,1.23,0,0,0,1-.64,2.18,2.18,0,0,0,.14-.87,1.85,1.85,0,0,0-.81-1.68,4.46,4.46,0,0,0-2.34-.52,3,3,0,0,0-2.5,1,3.24,3.24,0,0,0-.54,1.57H131a3.91,3.91,0,0,1,1.61-3.46,6.64,6.64,0,0,1,3.58-1,7.26,7.26,0,0,1,3.83.9,3,3,0,0,1,1.46,2.8v7.72a1,1,0,0,0,.15.56q.14.21.6.21h.34l.4-.06v1.66a7.61,7.61,0,0,1-.8.19,4.94,4.94,0,0,1-.75,0,1.86,1.86,0,0,1-1.69-.83,3.29,3.29,0,0,1-.39-1.24,5.5,5.5,0,0,1-2,1.57,6.15,6.15,0,0,1-2.84.66,4.22,4.22,0,0,1-3-1.13,3.75,3.75,0,0,1-1.19-2.83,3.62,3.62,0,0,1,1.17-2.88,5.48,5.48,0,0,1,3.05-1.27ZM133.34,61a2.67,2.67,0,0,0,1.69.56,5.25,5.25,0,0,0,2.3-.55,3.09,3.09,0,0,0,1.87-3V56.18a3.49,3.49,0,0,1-1.06.44,8.62,8.62,0,0,1-1.27.25l-1.36.18a5.33,5.33,0,0,0-1.84.51,2,2,0,0,0-1,1.87A1.86,1.86,0,0,0,133.34,61Z"/><path class="cls-1" d="M145.21,49.6h2.13v2.31a5.18,5.18,0,0,1,1.29-1.64,3.31,3.31,0,0,1,2.36-1h.22l.51,0v2.38a1.72,1.72,0,0,0-.37-.05l-.37,0a3.21,3.21,0,0,0-2.61,1.1,3.81,3.81,0,0,0-.91,2.52V63h-2.25Z"/><path class="cls-1" d="M162,49.6h2.49q-.48,1.29-2.11,5.88-1.23,3.45-2,5.63a38.63,38.63,0,0,1-2.75,6.25,3.15,3.15,0,0,1-2.75,1.12,4.57,4.57,0,0,1-.73,0,4.37,4.37,0,0,1-.63-.14v-2a6.2,6.2,0,0,0,.85.2,2.68,2.68,0,0,0,.46,0,1.72,1.72,0,0,0,.92-.2,2,2,0,0,0,.49-.51q.06-.11.45-1c.26-.62.44-1.08.56-1.38l-5-13.78h2.55l3.59,10.91Z"/></g></g></svg>