<svg fill="none" xmlns="http://www.w3.org/2000/svg" viewBox="0 0 121 42">
  <g clip-path="url(#a)" fill="#fff">
    <path d="M12.96 20.233c1.057 0 2.05-.199 2.975-.597a6.458 6.458 0 0 0 2.314-1.659c.661-.663 1.124-1.525 1.52-2.388.332-.928.53-1.923.53-2.918v-.067a8.85 8.85 0 0 0-.53-2.985c-.33-.929-.859-1.725-1.52-2.455s-1.52-1.194-2.446-1.592c-.926-.398-1.852-.597-2.976-.597-1.058 0-2.05.2-2.975.597-.86.398-1.653.93-2.314 1.659-.662.663-1.124 1.526-1.521 2.388a8.764 8.764 0 0 0-.529 2.919v.066a8.85 8.85 0 0 0 .529 2.985c.33.93.86 1.725 1.52 2.455.662.663 1.455 1.26 2.315 1.658.992.332 1.983.531 3.108.531Zm-.133 4.975c-1.851 0-3.57-.331-5.157-.995a13.243 13.243 0 0 1-4.1-2.653c-1.124-1.128-2.05-2.455-2.644-3.98C.264 16.053 0 14.394 0 12.67v-.066c0-1.725.33-3.383.992-4.909.661-1.526 1.52-2.852 2.71-3.98 1.19-1.128 2.513-2.057 4.1-2.72C9.39.332 11.108 0 12.96 0c1.85 0 3.57.332 5.157.995a13.242 13.242 0 0 1 4.1 2.654c1.123 1.127 2.05 2.454 2.644 3.98.661 1.526.926 3.118.926 4.909v.066c0 1.725-.33 3.383-.992 4.91-.661 1.525-1.52 2.852-2.71 3.98-1.125 1.127-2.513 2.056-4.1 2.72-1.521.663-3.24.994-5.158.994ZM38.085 25.208c-1.388 0-2.645-.265-3.835-.796-1.19-.53-2.248-1.194-3.107-2.122-.86-.863-1.521-1.924-1.984-3.118a10.482 10.482 0 0 1-.727-3.848v-.066c0-1.327.264-2.654.727-3.848a9.926 9.926 0 0 1 1.984-3.184c.86-.929 1.917-1.592 3.041-2.123 1.19-.53 2.513-.796 3.967-.796 1.72 0 3.174.265 4.364.863 1.124.597 2.182 1.326 3.042 2.321l-3.24 3.583a7.806 7.806 0 0 0-1.851-1.526c-.662-.398-1.389-.597-2.38-.597-.662 0-1.257.132-1.786.398-.529.265-.992.663-1.389 1.127a5.1 5.1 0 0 0-.925 1.659c-.199.663-.33 1.327-.33 1.99v.133c0 .73.131 1.46.33 2.056.198.664.529 1.194.925 1.659.397.464.926.862 1.455 1.127.595.266 1.19.398 1.918.398.86 0 1.653-.199 2.314-.53.661-.398 1.322-.863 1.917-1.46l3.042 3.184c-.926.996-1.918 1.858-3.042 2.521-1.124.664-2.578.995-4.43.995ZM61.558 13.732c-.132-1.194-.595-2.19-1.256-2.919-.662-.73-1.587-1.128-2.711-1.128-1.124 0-2.05.332-2.711 1.062s-1.124 1.725-1.323 2.985h8ZM58.12 25.208c-1.389 0-2.711-.265-3.901-.73-1.19-.464-2.248-1.127-3.108-2.056a9.13 9.13 0 0 1-2.05-3.118 10.93 10.93 0 0 1-.727-3.98v-.066c0-1.327.198-2.654.661-3.848a11.037 11.037 0 0 1 1.918-3.184c.793-.929 1.785-1.592 2.909-2.123 1.124-.53 2.38-.796 3.769-.796 1.587 0 2.909.265 4.1.863 1.123.597 2.115 1.326 2.842 2.321.794.995 1.323 2.057 1.72 3.317.33 1.26.528 2.521.528 3.914v.664c0 .265 0 .464-.066.73H53.557c.265 1.26.794 2.188 1.587 2.785.794.664 1.785.93 3.042.93.86 0 1.719-.133 2.38-.465a7.278 7.278 0 0 0 2.182-1.526l3.042 2.72c-.86 1.128-1.984 1.99-3.24 2.653-1.257.664-2.711.995-4.43.995ZM77.427 21.56c1.256 0 2.248-.332 3.041-.93.728-.596 1.124-1.392 1.124-2.387v-.929a10.249 10.249 0 0 0-1.52-.53 8.337 8.337 0 0 0-1.852-.2c-1.124 0-2.05.2-2.71.664-.662.464-.993 1.061-.993 1.923v.067c0 .73.265 1.26.794 1.658.595.465 1.256.664 2.116.664Zm-1.587 3.648c-.86 0-1.72-.132-2.513-.398-.793-.265-1.454-.597-2.05-1.128a4.676 4.676 0 0 1-1.388-1.79 5.816 5.816 0 0 1-.529-2.455v-.067c0-.995.198-1.923.53-2.653.396-.73.859-1.327 1.52-1.857a7.931 7.931 0 0 1 2.38-1.128c.926-.266 1.918-.398 3.042-.398.925 0 1.785.066 2.512.199.728.132 1.389.331 2.05.53v-.132c0-1.128-.33-1.99-.992-2.521-.661-.597-1.653-.863-2.975-.863-.992 0-1.918.067-2.711.266-.794.199-1.587.398-2.447.73l-1.322-4.047c.992-.464 2.116-.796 3.24-1.061 1.19-.332 2.513-.465 4.1-.465 1.454 0 2.71.2 3.768.53 1.058.333 1.918.863 2.579 1.527.727.73 1.19 1.525 1.52 2.587.331.995.464 2.123.464 3.383V24.81H81.46v-1.99a7.294 7.294 0 0 1-2.314 1.725c-.926.464-1.984.663-3.306.663ZM91.246 5.639h5.29v2.72c.33-.398.66-.796.991-1.128.331-.398.794-.663 1.19-.995.463-.265.926-.53 1.455-.664.529-.132 1.124-.265 1.852-.265 2.049 0 3.57.597 4.694 1.858 1.124 1.26 1.653 2.985 1.653 5.174v12.206h-5.29V14.064c0-1.26-.264-2.19-.859-2.853-.529-.663-1.323-.995-2.38-.995-1.058 0-1.852.332-2.447.995-.595.664-.926 1.592-.926 2.853v10.481h-5.29l.067-18.906ZM114.19 9.42h-3.769V6.5h3.769V2.654h3.041l.265 3.848H121V9.42h-3.769v3.847h-3.041V9.42Z" />
  </g>
  <path d="M16.474 41.774H13.8l.018-1.38h2.655c.914 0 1.676-.191 2.286-.572a3.57 3.57 0 0 0 1.371-1.618c.31-.697.466-1.512.466-2.444v-.782c0-.733-.088-1.384-.264-1.952-.175-.575-.433-1.058-.773-1.45-.34-.4-.756-.701-1.249-.906-.486-.206-1.046-.308-1.68-.308h-2.883v-1.39h2.884c.838 0 1.603.141 2.295.423a4.933 4.933 0 0 1 1.784 1.204c.505.522.891 1.155 1.16 1.9.27.738.405 1.57.405 2.496v.765c0 .926-.134 1.761-.404 2.506a5.228 5.228 0 0 1-1.17 1.89 5.103 5.103 0 0 1-1.828 1.205c-.71.275-1.51.413-2.4.413Zm-1.768-12.801v12.8H13.01v-12.8h1.697ZM30.19 40.147V35.25c0-.375-.077-.7-.23-.976a1.496 1.496 0 0 0-.668-.65c-.299-.153-.668-.229-1.107-.229-.41 0-.771.07-1.082.211-.305.14-.545.325-.72.554-.17.229-.256.475-.256.739h-1.626c0-.34.088-.678.264-1.012.175-.334.427-.636.756-.905a3.78 3.78 0 0 1 1.195-.65c.47-.165.99-.247 1.565-.247.692 0 1.302.117 1.829.352.533.234.95.589 1.248 1.064.305.468.458 1.058.458 1.767v4.43c0 .317.026.654.079 1.012.058.358.143.665.255.923v.14h-1.697a3.04 3.04 0 0 1-.194-.747 6.026 6.026 0 0 1-.07-.879Zm.28-4.14.018 1.142h-1.644c-.463 0-.876.038-1.24.114-.363.07-.668.18-.914.326a1.547 1.547 0 0 0-.563.554 1.468 1.468 0 0 0-.193.765c0 .299.067.571.202.817s.337.443.607.59c.275.14.612.21 1.01.21.499 0 .939-.105 1.32-.316.38-.211.682-.47.905-.774.229-.305.352-.6.37-.888l.694.783c-.041.246-.152.518-.334.817a3.938 3.938 0 0 1-1.802 1.539c-.41.176-.874.264-1.39.264-.644 0-1.21-.126-1.696-.378a2.901 2.901 0 0 1-1.126-1.012 2.676 2.676 0 0 1-.395-1.433c0-.51.1-.958.299-1.345.199-.392.486-.718.861-.976a4.092 4.092 0 0 1 1.354-.597 7.144 7.144 0 0 1 1.767-.203h1.89ZM38.357 32.26v1.25h-5.143v-1.25h5.143Zm-3.403-2.311h1.627v9.469c0 .322.05.565.15.73.099.163.228.272.386.325.159.052.329.079.51.079.135 0 .276-.012.422-.035.153-.03.267-.053.343-.07l.009 1.327c-.13.04-.3.079-.51.114a3.879 3.879 0 0 1-.747.062c-.399 0-.765-.08-1.1-.238-.333-.158-.6-.422-.8-.791-.193-.375-.29-.88-.29-1.512v-9.46ZM45.874 40.147V35.25c0-.375-.076-.7-.229-.976a1.495 1.495 0 0 0-.668-.65c-.299-.153-.668-.229-1.107-.229-.41 0-.771.07-1.082.211-.305.14-.545.325-.72.554-.17.229-.256.475-.256.739h-1.626c0-.34.087-.678.263-1.012.176-.334.428-.636.757-.905a3.78 3.78 0 0 1 1.195-.65c.47-.165.99-.247 1.565-.247.692 0 1.301.117 1.829.352.533.234.95.589 1.248 1.064.305.468.458 1.058.458 1.767v4.43c0 .317.026.654.079 1.012.058.358.143.665.255.923v.14h-1.697a3.031 3.031 0 0 1-.194-.747 6.027 6.027 0 0 1-.07-.879Zm.281-4.14.018 1.142h-1.644c-.463 0-.876.038-1.24.114-.363.07-.668.18-.914.326a1.547 1.547 0 0 0-.563.554 1.47 1.47 0 0 0-.193.765c0 .299.067.571.202.817s.337.443.607.59c.275.14.612.21 1.01.21.499 0 .938-.105 1.32-.316.38-.211.682-.47.905-.774.229-.305.352-.6.37-.888l.694.783c-.041.246-.152.518-.334.817a3.94 3.94 0 0 1-1.802 1.539c-.41.176-.874.264-1.39.264-.645 0-1.21-.126-1.697-.378a2.902 2.902 0 0 1-1.125-1.012 2.676 2.676 0 0 1-.396-1.433c0-.51.1-.958.3-1.345.199-.392.486-.718.86-.976a4.094 4.094 0 0 1 1.355-.597 7.143 7.143 0 0 1 1.767-.203h1.89ZM58.904 39.83l3.771-10.857h1.838l-4.739 12.8h-1.31l.44-1.942Zm-3.526-10.857 3.737 10.858.466 1.943h-1.31l-4.73-12.801h1.837ZM67.757 32.26v9.514h-1.635V32.26h1.635ZM66 29.739c0-.264.079-.487.237-.669.164-.181.405-.272.721-.272.31 0 .548.09.712.272.17.182.255.405.255.669a.92.92 0 0 1-.255.65c-.164.176-.401.264-.712.264-.316 0-.557-.088-.72-.264a.958.958 0 0 1-.238-.65ZM74.316 41.95a4.68 4.68 0 0 1-1.802-.334 4.087 4.087 0 0 1-1.38-.959 4.263 4.263 0 0 1-.88-1.46 5.351 5.351 0 0 1-.308-1.846v-.369c0-.773.115-1.462.343-2.066.229-.61.54-1.125.932-1.547a3.991 3.991 0 0 1 1.337-.959 3.839 3.839 0 0 1 1.547-.325c.68 0 1.266.117 1.758.352.499.234.906.562 1.222.985.317.416.552.908.704 1.477.152.562.228 1.178.228 1.846v.73h-7.103v-1.328h5.477v-.123a4.056 4.056 0 0 0-.264-1.231 2.212 2.212 0 0 0-.703-.985c-.323-.258-.762-.386-1.319-.386a2.214 2.214 0 0 0-1.82.923 3.454 3.454 0 0 0-.519 1.116c-.123.44-.184.947-.184 1.521v.37c0 .45.061.876.184 1.274.13.393.314.739.554 1.038.246.299.542.533.888.703.352.17.75.255 1.196.255.574 0 1.06-.117 1.46-.352a3.615 3.615 0 0 0 1.046-.94l.984.782a4.55 4.55 0 0 1-.782.888c-.317.282-.706.51-1.17.686-.457.176-.999.264-1.626.264ZM82.326 40.086l2.444-7.825h1.072l-.21 1.556-2.489 7.957h-1.046l.229-1.688ZM80.68 32.26l2.084 7.913.15 1.6h-1.1l-2.76-9.513h1.626Zm7.5 7.851 1.987-7.851h1.618l-2.761 9.513h-1.09l.246-1.662Zm-2.101-7.851 2.391 7.693.273 1.82h-1.038L85.148 33.8l-.211-1.54h1.143ZM97.404 41.95a4.68 4.68 0 0 1-1.803-.334 4.086 4.086 0 0 1-1.38-.959 4.261 4.261 0 0 1-.88-1.46 5.351 5.351 0 0 1-.307-1.846v-.369c0-.773.114-1.462.343-2.066.229-.61.54-1.125.932-1.547a3.99 3.99 0 0 1 1.336-.959 3.838 3.838 0 0 1 1.548-.325c.68 0 1.266.117 1.758.352.498.234.906.562 1.222.985.317.416.551.908.704 1.477.152.562.228 1.178.228 1.846v.73h-7.104v-1.328h5.478v-.123a4.059 4.059 0 0 0-.264-1.231 2.212 2.212 0 0 0-.704-.985c-.322-.258-.761-.386-1.318-.386a2.214 2.214 0 0 0-1.82.923 3.454 3.454 0 0 0-.519 1.116 5.66 5.66 0 0 0-.184 1.521v.37c0 .45.061.876.184 1.274.129.393.314.739.554 1.038.246.299.542.533.888.703.352.17.75.255 1.196.255.574 0 1.06-.117 1.46-.352a3.614 3.614 0 0 0 1.045-.94l.985.782c-.205.31-.466.607-.782.888a3.74 3.74 0 0 1-1.17.686c-.457.176-1 .264-1.626.264ZM104.631 33.755v8.019h-1.627V32.26h1.583l.044 1.494Zm2.971-1.547-.008 1.512a2.36 2.36 0 0 0-.387-.052 4.118 4.118 0 0 0-.405-.018c-.375 0-.706.059-.993.176a2.058 2.058 0 0 0-.73.492 2.388 2.388 0 0 0-.475.756 3.642 3.642 0 0 0-.219.95l-.458.264c0-.575.056-1.114.167-1.618.118-.504.296-.95.537-1.337.24-.392.545-.697.914-.914.375-.223.821-.334 1.336-.334.118 0 .253.015.405.044.152.024.258.05.316.08Z" fill="#fff" />
  <defs>
    <clipPath id="a">
      <path fill="#fff" d="M0 0h121v25.208H0z" />
    </clipPath>
  </defs>
</svg>