<svg id="Layer_2" data-name="Layer 2" xmlns="http://www.w3.org/2000/svg" xmlns:xlink="http://www.w3.org/1999/xlink" viewBox="0 0 571.54 171.81"><defs><style>.cls-1{fill:none;}.cls-2{opacity:0.5;}.cls-3{fill:#666;}.cls-4{clip-path:url(#clip-path);}.cls-5{fill:#fff;}.cls-6{fill:#e6e6e6;}</style><clipPath id="clip-path"><path class="cls-1" d="M14.78,124.21c1.25-1.87,7.68-.61,10.81,3.28s2.59,6.19,6.12,9.11A73.72,73.72,0,0,1,40,143.4c-.5-.61-1-1.23-1.46-1.87a11.93,11.93,0,0,1-4.09-4.95c-.55-1.61-1.14-3.25-1.69-4.79-.15-.31-.3-.6-.44-.91-1.93-4.35-3.57-6.34-.8-9,2-1.94,7.73-.9,11.61,3.93s2.19,6.65,6.57,10.28c2,1.66,5.49,2.75,8.72,5.33,2.24,1.79,5,1.14,7.7,2a40.37,40.37,0,0,0,6.49,1.41c10.84,1.35,20,1.08,28.38-.83a70.33,70.33,0,0,0,10.94-9.91,43.66,43.66,0,0,0-4.61-6.06l-.87-.65-1.11-.39a13.7,13.7,0,0,1-6.68-5.22c-2.66-1.87-4.75-3.32-5.49-3.91,0,0-4.56-3.57-5.41-5.79-.75-1.92,2.8-7.66,11.12-4,2.76,1.21,5.13,1.73,7.54,3,1.33.71,4.26,4,5.37,4.45,4,1.61,8.46,3.49,11.87,4.26,3.56.81,19.85-2.18,30.89-1.45a81.62,81.62,0,1,0-140.24,9.43A4.33,4.33,0,0,1,14.78,124.21Z"/></clipPath></defs><title>ProtectedPlanetlogo-reversed</title><path class="cls-1" d="M81.61,163.23a81.62,81.62,0,1,1,81.62-81.62A81.61,81.61,0,0,1,81.61,163.23Z"/><g class="cls-2"><path class="cls-3" d="M38.31,141.82l-.36.38.23.22c2.55,2.41,5.06,4.78,7.47,7.12,1.21,1.17,2.4,2.33,3.55,3.5a18.88,18.88,0,0,0,3.69,3.18,34.39,34.39,0,0,0,8.51,3.56c2.82.88,5.52,1.71,8,2.67-2.48-1-5.17-1.94-8-2.88a35.48,35.48,0,0,1-8.37-3.67,18.82,18.82,0,0,1-3.58-3.18c-1.14-1.18-2.32-2.35-3.52-3.53q-3.61-3.54-7.46-7.15Z"/></g><g class="cls-4"><path class="cls-5" d="M130.21,27.93s0,0-.06,0c1.51.25,2.62-.55,4.14-.39,1.84.19,3.43,1.36,5.38,1.58.85.1,1-.59,1.88-.54-.82-2.38-4.07-2.2-5.44-4.05,1.54-.19.37-1.33.77-1.54-.63.14-2.62.58-2.55.82.15.49,1.15.62,1.55.66-.78,1.19-2.3.44-3-.2-1.75-1.55-1.33-1-3.12-.77.22.44-.31.63-.49,1.17C129.71,26.49,128.58,26.14,130.21,27.93Z"/><path class="cls-5" d="M31.4,29.82c.38.86,2.4-2.11,2.7-2.45,1-1.12,3.69-1.65,1.65.56.32,0,.34-.1.66-.18-.18.4-.3.59-.18.79.37,0,1.47-1.23,1.85-1.62.16.42,1.93-.29-.72-1-.91-.25-.17-2.56-1.42-1.62-.31-.82-3.85,1-4.57,1.44a22.91,22.91,0,0,0,3.45-.79,3,3,0,0,1-.71.58c.88,0,1.8.3,2.81.29-1.12.56-2.82.27-3.84,1.47a2.75,2.75,0,0,1,.86-.34C33.47,27.24,31.09,29.11,31.4,29.82Z"/><path class="cls-5" d="M146.23,31.8a.72.72,0,0,0,.35,0c-1.62-.43-3.05-3.51-4.73-3.14C143.47,28.94,144.42,31.58,146.23,31.8Z"/><path class="cls-5" d="M38.26,28.68c0-.29,2.94-.06,3.48-.88C41.27,27.79,38.15,28.06,38.26,28.68Z"/><path class="cls-5" d="M58.15,5.45a.58.58,0,0,1,.11,0c-.36,0-.73.07-1.08.08a7.56,7.56,0,0,0,1.33.12S58.1,5.49,58.15,5.45Z"/><path class="cls-5" d="M60.09,5.19l-.43,0A2.11,2.11,0,0,0,60.09,5.19Z"/><path class="cls-5" d="M35,29.44c-.19.27-.36.68-.08.68a10.83,10.83,0,0,0,2.59-.72C37.17,29.55,35,29.72,35,29.44Z"/><path class="cls-5" d="M58,11.82l-.18,0A.58.58,0,0,0,58,11.82Z"/><path class="cls-5" d="M29.38,61.06v0S29.39,61.05,29.38,61.06Z"/><path class="cls-5" d="M84.7,4.86l-.47,0A.91.91,0,0,0,84.7,4.86Z"/><path class="cls-5" d="M75.58,4.79c.06,0,.35,0,.72,0C76,4.77,75.77,4.77,75.58,4.79Z"/><path class="cls-5" d="M78.31,4.92l1.43-.19c-.35,0-.72,0-1.09,0S78.25,4.93,78.31,4.92Z"/><path class="cls-5" d="M42.94,11.56c0,.06-.21.17-.35.26C42.79,11.76,42.93,11.68,42.94,11.56Z"/><path class="cls-5" d="M36.14,11.84c-.15.12.89-.06,1.22-.11A2.75,2.75,0,0,0,36.14,11.84Z"/><path class="cls-5" d="M53.54,10.69a1.13,1.13,0,0,1,.67-.23A.84.84,0,0,0,53.54,10.69Z"/><path class="cls-5" d="M37.36,11.73h.07l0,0Z"/><path class="cls-5" d="M51.57,8.75h0S51.63,8.74,51.57,8.75Z"/><path class="cls-5" d="M14.13,46.12a9.86,9.86,0,0,1,4.49-4c1.3-.72,2.22,1.26,3.18.82-.14-.32.28-.64.63-1.2-.22.1-.17.11-.36,0a13.93,13.93,0,0,1,1.58-.2c-.17.32,3.14.83,3.15.9.16.48-2.07,6.2-.87,6.36s2.35-3.81,2.44-4.7c.36-3.54,3-4.8,5.95-6.11l0-.07c.73-.49,1.63-.61,2.33-1.16-.54-.61.27-.43.58-.85-.14,0-.27-.07-.26-.31a1.07,1.07,0,0,0,.81-.71h-.21a5.93,5.93,0,0,1,1-2c0,.12-.39,1.59-.45,1.59,1,0,1.21-1.7,1.73-2-.17-.41,2.74-1.49,3.41-1.66-.17-.2-.84,0-1.07,0,1.16-.52,2.75-.46,3.83-.86-1.74.05,1.41-2.6,2.45-2.38s3.06-1.22,4.31-1.27c-.25.33-.16.46.28.4-1.66.09-3,2.19-1.71,1.53.76-.4,4.1-.94,4.42-1.58.17-.37-3.73-.1-2-2.25-.16,0-.46-.07-.74-.07.49-.32,1.41-.18,1.74-.77S50.26,24,50,24c2-1.63,11.7-1.34,10.72-4.6-.29.09-3.45.93-3.51.55.73-.22,2.52-.4,2.9-.76s-2.52,0-2-.94l0-.05A1.73,1.73,0,0,1,57,17.81c1.65-.54-.43-3.3-1.38-2a1.36,1.36,0,0,0,.44.35c-.43-.14-.76-.23-.28-1.11-.78,1.47-4,.55-5.09,0-3.77-1.78-2.61.71-5.43,1.36.07,1.35,2,1.34-.64,2.39-2.08.85-.85,1.3-1.91,2.49-.94,0-1.3-.06-1.39-.22a1,1,0,0,0,.52.09c.22-.28-.25-.29-.54-.22.09-.4,1.16-1.08.42-1.6-2.2.09-1.94-1.52-4.66-1.38.74-.77.86-1.23-.28-1,1.46-1,4.3-1.9,5.47-3a1,1,0,0,0-.32-.19c1.35.11,3.62-.15,4.51-.93-.64-.06-1.44,0-1.35-.3a5.2,5.2,0,0,0,2.21.07,10.89,10.89,0,0,0-2,1.16,5.57,5.57,0,0,1,1-.05c-.18.13-.38.26-.11.25a20.15,20.15,0,0,0,3.9-.56c-.06-.14-.54,0-.75-.19s.09-.13.07-.21c-.11-.27-1.15-.4-1.39-.3,0-.07,0-.13,0-.2.24-.05.49-.12.74-.19-.1.08,0,.16.24.16,0-.1.1-.23-.21-.17a10.73,10.73,0,0,0,3.61-1.74,10,10,0,0,1-1.18-.19l1.25,0c-.36.28,1.38-.19,1.84.07h0a.75.75,0,0,1,.41.2l-.55.15a4.31,4.31,0,0,1,1.35.12,1.8,1.8,0,0,0-1.23.31s1.46.43,1.48-.17c.93.66-1.83,1.18-1.06,1.43-1,.43-2.81.15-3.48,1.07-.12.16,3-.21,3.32-.06.74.36,2.15,1.21,3.33,1,.94-.23-.84-1.07-.83-1.06,1.61-.28,1.56.53,2-.87-.56.08-.72-.45-1.13-.41.09-.27.23-.11.33-.3.74.11,2.26.54,2.39-.42,0-.06-2-.74-2.18-.79a1.45,1.45,0,0,1,.52-.21,1,1,0,0,0-.58-.06,1.08,1.08,0,0,1,.52-.12.52.52,0,0,0-.53-.16c0-.05,0-.09,0-.13-1.69-.06-3.16-.58-4.93-.58.09,0,.28-.36.26-.41-.25-.71-4.42.73-3.44.28-.47,0,1-.4,1.36-.47A10,10,0,0,0,49,8.9a6.86,6.86,0,0,0,.9-.32c-1.86.09-2.55.08-3.9,1a2.14,2.14,0,0,0,1.25-.33H47A13.73,13.73,0,0,1,48.76,9c-.28.15-2,.35-1.69.87,0,0,1.16,0,1.3.07a1.26,1.26,0,0,1-1.37.14c-.47.38,3.33.4,3.35.4-.47.13-2.31,1.81-3,1.21-.1-.4.12-.59.67-.57.43-.36-1.82.17-1.71.17.55-.46-.47-.26.38-.51-.21-.08-.78,0-.83-.09l.81-.27c.61-.46-2-.39-2.69.15-.19.14.94.23.74.39l-.55.31.55-.13c-.27.42-1.34.28-2,.8-.41.07-.34,0-.18-.1-.94.26-3.54,0-5.16-.09a2.68,2.68,0,0,1-2,.47c-2.07-.7-6.14.4-7.5,1.63-4.14,3.75-6.42,8.62-9.65,13.17C11.66,36.25,8.14,46.62,6.15,57.81c.61,0,.84,2.44,1.6,2.64s1.3-1.69,1.68-.26c.52.12.28,2.61.5,3.11a3.92,3.92,0,0,0,2.55,2.35,8.61,8.61,0,0,0,0,3.2c.09,1.25-.93,2.52-.64,3.69l.3.1a1,1,0,0,1,.2-.57c1.17.39.45,6.33,2,7,.78.33.89-3.49,2.51-2.93.81.29.16,2.33.24,2.9a16.81,16.81,0,0,0,1.4-1.35c-.27-1-.32-3.59-2-2.83C12.78,76.4,14.3,70.06,15,68.16,15.85,66,19,62,14.74,61.74c-3.48-.19.52-3.47,1-4.25a5.55,5.55,0,0,0,.93-1.39c.47-1,1.34-1.79,1.83-2.8-4-.7-4.08,4.41-7.71,3.64-2.67-.53,3-10.15,3.33-10.85ZM58,11.82a.58.58,0,0,1-.18,0ZM35,30.12c-.28,0-.11-.41.08-.68,0,.28,2.14.11,2.51,0A10.83,10.83,0,0,1,35,30.12Zm6.79-2.32c-.54.82-3.44.59-3.48.88C38.15,28.06,41.27,27.79,41.74,27.8Zm-8.66-.52c1-1.2,2.72-.91,3.84-1.47-1,0-1.93-.32-2.81-.29a3,3,0,0,0,.71-.58,22.91,22.91,0,0,1-3.45.79c.72-.45,4.26-2.26,4.57-1.44,1.25-.94.51,1.37,1.42,1.62,2.65.72.88,1.43.72,1-.38.39-1.48,1.62-1.85,1.62-.12-.2,0-.39.18-.79-.32.08-.34.18-.66.18,2-2.21-.66-1.68-1.65-.56-.3.34-2.32,3.31-2.7,2.45s2.07-2.58,2.54-2.88A2.75,2.75,0,0,0,33.08,27.28Z"/><path class="cls-5" d="M57.1,25.54c0-.1-.1-.16-.12-.26a3.36,3.36,0,0,0-1.18.86c-.16.32,1.15.26,1.38-.22C56.42,25.92,57,25.81,57.1,25.54Z"/><path class="cls-5" d="M60.11,23.61l-.45.09.05-.11h-.6a.37.37,0,0,1,.31-.32,1,1,0,0,0-1.06.07c0-.07,1.84-1.56,1.38-1.56-1.48,0-2.56,2.11-4,2.54,0,.07.11.12.2.12-.16.37-.71.26-.87.6,0,0,3.5.28,3.89.28a1.37,1.37,0,0,0-.55.41C58.39,25.88,60,25,60,25c.67.7.6,1.72,1.29-.08-.25.09-.16.15-.51.14a3.27,3.27,0,0,1,.4-.76,1,1,0,0,0-.41.07c.15-.37.27-.58.36-.8A2.14,2.14,0,0,1,60.11,23.61Z"/><path class="cls-5" d="M44.23,15a6.94,6.94,0,0,0,1.6-.51,2.07,2.07,0,0,0-1.42.34Z"/><path class="cls-5" d="M39,7.67a1.12,1.12,0,0,0-1.08.48.74.74,0,0,0,.77-.31C39.15,7.81,39.26,7.75,39,7.67Z"/><path class="cls-5" d="M39.27,8a.78.78,0,0,0,.54-.11l-.59,0C39.11,8,39.19,8,39.27,8Z"/><path class="cls-5" d="M40.42,7.46a.49.49,0,0,0-.53,0A.38.38,0,0,0,40.42,7.46Z"/><path class="cls-5" d="M54.86,22.71c.45.35,1.31,1,1.92.53A2.45,2.45,0,0,0,54.86,22.71Z"/><path class="cls-5" d="M42.07,7.4c-.77,0-.64,0,.4-.1a.13.13,0,0,0-.1-.1l.26,0a5.66,5.66,0,0,0-1.72.11,1.43,1.43,0,0,1,.74,0c-.62.14-1.29.44-.85.41A3.58,3.58,0,0,0,42.07,7.4Z"/><path class="cls-5" d="M33.11,11.8l-.5.4c.2,0,.52-.06.68-.11C33.33,11.86,33.34,11.79,33.11,11.8Z"/><path class="cls-5" d="M43,7.12l-.35,0A1,1,0,0,0,43,7.12Z"/><path class="cls-5" d="M33.8,10.69a22.35,22.35,0,0,0,6.38-.4s-.13-.23-.18-.19c.29-.21.93-.15,1.26-.24-.68-.52-1.21.07-.76-.9a4.16,4.16,0,0,1,1.21-.83c-1.24-.43-2.17,1-3.09,1.07a4.25,4.25,0,0,0-2.36-.3c.06-.25,0-.34-.17-.33a.28.28,0,0,0,0-.23l-.45.33h.12A14.16,14.16,0,0,0,34,10a2.57,2.57,0,0,1,1.26,0,3,3,0,0,0-2.13.68A1.89,1.89,0,0,1,33.8,10.69Z"/><path class="cls-5" d="M38.08,8.72a1,1,0,0,1,.36-.11v0c1.36-.32,3.4.28,4.65-.48.15-.09-1.64.05-.77-.39-.16,0-1.78.31-1,.32a.6.6,0,0,1-.39.14h.31c-.94.37-1.86-.24-2.74-.14-.07,0,0,.06,0,.07a1.39,1.39,0,0,0-.53.1l.11,0a.76.76,0,0,0-.55.13l.13,0a.63.63,0,0,0-.64.35A3.84,3.84,0,0,0,38.08,8.72Z"/><path class="cls-5" d="M38.21,7.7c-.23,0-.23,1.08-.42,1.2C38.24,9,38.22,8,38.21,7.7Z"/><path class="cls-5" d="M30,47.42c-.1.13-.13.41,0,.37S30,47.54,30,47.42Z"/><path class="cls-5" d="M64.3,91.06c-1.59-.31-2.51-1.27-4-1.69s-3.17.08-4.47.21c-.29-1.2-.67-1.15-1.72-1.58-2.78-1.15-1.46,1.41-2.88,1.56s-3.06-1.68-1.94-3.17c.74-1-2-4.87-3.56-4.74-1.37,0-5-.25-5.83-1.49-1.07-1.6-4.94-2-5.29-3.76a.54.54,0,0,0,.52-.11c-1.06,0-2.57,1-3.37.76-.57-.19-2.23,0-2.63-.42a3.94,3.94,0,0,0-2.59-1.37c.09.49.6.25.85.73-2.58.17-.68,2.77-1.17,2.8-1.13.08-.84-2.37-.85-2.88.33-.26.37-.51.13-.76-.46-.65-.84.47-1.19.62-1.58.71-4.16,2.16-3.74,4.27-2,.82,0,3.38.35,4.91-.18.35,0,.6.39.73,0,1.62-2.11,3.33-2.14,4.92,0,1.84-.52,2.09,1.16,3,0,1.12-1.18,1.64-.85,2.9s1.5,1.38,2.1,2.19a46,46,0,0,0,4.13,5c1.75,1.87,2.2,4.31,5,4.79,2.22.29,4.71,1.67,5.61,3.74.82,1.88,1.11,3.85,1.8,5.77.34,2,.18,5.6,1.42,7.22a17.22,17.22,0,0,1,1.4,7.45c0,1.47.84,1.62,1.33,2.67s-.31,1.91,1.22,2.79a.53.53,0,0,1,.54-.52c1.36,2.8,6.71,4.28,9.58,5.42.21-1.13-4.18-1.85-2-3.22,1.35-.64.26-2.41-.07-3.13.25-.07,1.42.32,1.07-.45.23.49-3.25-1.07-1.87-1.45.74-.2,2.57.36,2-.85,0-.62-1.17-1.91-.05-2.19,1-.24,2.57-.47,3-1.52,1.3-3-1.48-2.12-2.25-4.07.16.42,4.1-.21,4.34-1.49.35-1.91,1-3.58,1.29-5.47,0,0,0,0,0,0a2.77,2.77,0,0,1,.68-1.93c-.29-.83-.56-1.66-.8-2.5s1.12-2.38,1.83-2.82c2.55-1.63,3-2.7,3.71-5.63.24-1.72-1.54-5.61-.94-6.76C64.49,98.08,67.71,91.77,64.3,91.06Z"/><path class="cls-5" d="M30,55.9c.54,0,.83-.2.88-.69C30.8,55.33,29.51,55.76,30,55.9Z"/><path class="cls-5" d="M64.52,9.6l.11-.06S64.54,9.56,64.52,9.6Z"/><path class="cls-5" d="M151.6,65.6c-2.61.48-3.59,1.24-4.34-1.9-.51-2.19-4.28-3.68-4.79-6a6.6,6.6,0,0,0-2-3.67c-1.09-1.2-.71-3.28-1.58-4.75-.75-1.28-.94-2.64-1.63-4-1-2-3.17-4.62-3.3-6.84.69.74,1.46,2.76,2.27,2.88.49-2.16.55-2.72-.29-4.8-1.42.39-2.67-.49-4,0a6.78,6.78,0,0,1-5.1-.19c-1.3-.46-6.54-3.48-6.45.07.1,4.1-4.82-1.21-6.09-1.61s-3.62.35-3.61-2c0-1.32.49-2.35.56-3.53a.63.63,0,0,1-1.07-.08c-.6-.92-1.43.29-2.08.32-1.38.05-2.62,0-4,.08a14,14,0,0,0-5.91,2.17c-2.14,1.27-4.06-.55-5.28,1.1H93c-1.07,1.44-2.33,2.72-3.37,4.19-.72,1-.45,2.31-.82,3.44A4.45,4.45,0,0,1,86.3,43c-1.83.69-2.55,2.78-3.29,4.44-.61,1.36-1.1,2.62-1.82,3.91-1,1.69.36,4.36.3,6.19a8.25,8.25,0,0,1-1.2,3.89c-.67,1.07.22,2.35.2,3.75h-.11a23,23,0,0,0,2.46,3.11C84.43,70,84.78,72.36,86.48,74c1.28,1.27,2.79,3.28,4.81,2.57a9,9,0,0,1,2.7-.94c.86,0,1.52.72,2.36.7,2-.06,3.91-2.83,6.3-2.9,1.74-.06,1.6,2.92,3.11,2.89,4.88-.13,4.32,3.36,3.1,6.75-.79,2.19,1.37,4.23,2.58,5.75s1.37,3.83,1.88,5.69,1.33,4.47.92,6.28-1.9,3.09-2.23,5c-.46,2.6.54,5.14,1.7,7.41a12.45,12.45,0,0,1,1.45,5.46c.59,5.18,4.57,8.88,4.54,13.84.51-.31,2.11.69,3.5-.06s2.73-.43,4.23-.59c.11-.62,2.91-1.62,3.47-2.4,1.33-1.83,2.11-3.94,3.56-5.67s-.23-3.25,1.64-4.83,2.31-.9,2.39-3.72c0-1.23-2.29-4.21.22-4.72.27-1.79,2-2.57,3.41-3.42,3.88-2.43.85-5.83,2.41-9.2.56-1.24-1.31-2.66-1.3-4s-.3-2.55-.3-3.84,1.07-1.94,1.32-3.13c.95-4.48,4.77-5.73,7.11-9.2,2-3,6-10.06,4.45-13.67A40.54,40.54,0,0,1,151.6,65.6Z"/><path class="cls-5" d="M77.88,8.88c.19-.58,1.33.93,1.64,0a3.92,3.92,0,0,0-1-.38c.59,0,1.55.42,2.07-.19-.1,0-.18-.07-.16-.13a2.16,2.16,0,0,0,1-.27,1.18,1.18,0,0,1-.78-.15c.11-.31.64.06.79-.33s-.83-.36-.79-.47c.21-.51,1.8.2,2-.32a2.36,2.36,0,0,0-.81-.24,2.79,2.79,0,0,0,.4-.07,3.92,3.92,0,0,0-1.41-.08c.55-.29,3.56-1,3.78-1.38.84,0,2.42-.16,2.65-.52.07-.12-7.4.83-7.83.89.09-.07,1.63-.58,1.67-.62s-.3,0-.73,0a2.66,2.66,0,0,0,1.26-.48c-4-.06-8.23-.27-12.09.65.05,0,.15,0,.22.06a1.51,1.51,0,0,0-.59.11,1,1,0,0,0,.64.18c-.33,0-1.88-.29-2.06,0,0,0,0,.07,0,.12-.3-.11-.73-.18-.88.09-.57,0-4.45.22-4.86,1a1.26,1.26,0,0,0,.72.06c-.41.8-2.19.11-2.51.82-.12.25,1.59.11,1.75.1-.34.39-1.3,0-1.59.4a1.2,1.2,0,0,1,.7.07A.83.83,0,0,1,61,8a1,1,0,0,0,.73.09s0,0-.08,0c.75-.22,3.56-.23,3.05,1.11.35.09.33.22,0,.4a5.74,5.74,0,0,1,1.26.48c-.23.37-.73-.07-1.08,0,0,.22.86.26,1.23.33-.39.47-1.41.61-1.6,1.23a.26.26,0,0,1,.24,0c-.49.67.36.77.59,1-1.08.59,1.87,1.91,2.28,1.94.62,0,2-2.38,3.23-2.61a1.05,1.05,0,0,0,0,.19c1.28,0,1.94-.72,3.07-1.05A15.69,15.69,0,0,0,79,10.24c-.4-.07-2.15,0-2.07-.32.56-.06.25-.06.34-.36.26.08,2.15.77,2.27.35C79.73,9.29,78.17,9,77.88,8.88Zm6.82-4a.91.91,0,0,1-.47,0Zm-6.39.06c-.06,0,.12-.06.34-.14s.74,0,1.09,0Zm-2.73-.13c.19,0,.44,0,.72,0C75.93,4.79,75.64,4.8,75.58,4.79Z"/><path class="cls-5" d="M29.23,46.78a.91.91,0,0,0-.61.3,4.83,4.83,0,0,0,.82.09C29.44,47,29.45,46.81,29.23,46.78Z"/><path class="cls-5" d="M81,11.12a1.31,1.31,0,0,0-.23.06c2.12.19,3.3,1.07,5.54.09.17-.29-.74-.74-.13-.91-.28,0-2.63-.25-2.66,0-.33-.18-.73.1-.95-.23-.24.13-.93.4-.64-.28a5.72,5.72,0,0,0-1.09.15c0,.11.88.54.84.51a6.09,6.09,0,0,1-1.14,0c.11.16.55,0,.84.13A3.79,3.79,0,0,0,81,11.12Z"/><path class="cls-5" d="M56.84,22.3c-.54.44.63.09,0,0Z"/><path class="cls-5" d="M23.93,61.14c-.26,0-1.25,1.23,1,1.12a.55.55,0,0,0-.11-.57.51.51,0,0,0,0,.13A2.22,2.22,0,0,0,23.93,61.14Z"/><path class="cls-5" d="M27.43,62.31c.71-2,2.38,1.07,2.4,1.07.27,0,1.38-1.7,1.46-1,0,0,2.43,0,2.53,0s-.3-1-.45-1.51c-.44-.79-.3-2-1.47-2.16-.57-.08-1.18.42-1.59-.2-.87-1.33-.91,2.11-.93,2.46C29.17,60.93,25.58,61.25,27.43,62.31ZM29.38,61v0S29.38,61.05,29.38,61Z"/><path class="cls-5" d="M53.74,25.23a.43.43,0,0,0-.22.18c-.12.23,1.31,1,1.69.24A1.24,1.24,0,0,1,53.74,25.23Z"/><path class="cls-5" d="M28.35,58.22c-.48-.68.28-1.28-.77-1.57.08-.58-1.46-2.78-2.13-3.44-2.1-2-3.55-1.63-5.44.8,1.86.24,2.07-2.38,2.7-.3,2.36.28,2.86,2.77,2.2,4.34C26.11,58.23,27.27,59.7,28.35,58.22Z"/><path class="cls-5" d="M35,63.45c-.27.84,1.2,1.25,1.6.68C36.62,63.74,35.3,62.62,35,63.45Z"/><path class="cls-5" d="M33.37,60.94l0,0C33.26,60.53,33.29,60.64,33.37,60.94Z"/><path class="cls-5" d="M28.24,50c.07-.16-.08-.91-.18-.71S27.86,50.82,28.24,50Z"/><path class="cls-5" d="M21.46,54.26a.68.68,0,0,0-.51.51c.16-.34.26.78.83-.86C21.58,53.7,21.59,54,21.46,54.26Z"/><path class="cls-5" d="M47.73,8.12a1.2,1.2,0,0,0-.42.13S49.54,8.3,49,8A1.58,1.58,0,0,0,47.73,8.12Z"/><path class="cls-5" d="M111.59,27.2c.34,2.72,2.12-1.06-.41-.65C111.24,26.79,111.57,27,111.59,27.2Z"/><path class="cls-5" d="M94.57,15.57c1.57.09,2.55-.36,2.58-1.79,0-.22,1.31-1-.46-1.13-.3,0-1.83-.08-1.26.54-.23.13-1.22,0-1.24.37l.56.45C94.63,14.44,92.93,15.46,94.57,15.57Z"/><path class="cls-5" d="M111.94,26a9.84,9.84,0,0,0,.16-1.13c-.11,0-.16-.18-.17-.32a1.4,1.4,0,0,1-.73.28C111.4,25.1,111.61,26,111.94,26Z"/><path class="cls-5" d="M129.17,34a5.55,5.55,0,0,0-2.17-.41A3.3,3.3,0,0,0,129.17,34Z"/><path class="cls-5" d="M105.86,27.27s.76.57.72.17S106.24,27,105.86,27.27Z"/><path class="cls-5" d="M98.64,13.51c-.18.05-.21.13-.21.23l.33,0c0-.11,0-.18,0-.25Z"/><path class="cls-5" d="M96.73,10.77a.5.5,0,0,0,.57-.36C97.24,10.41,96.13,10.73,96.73,10.77Z"/><path class="cls-5" d="M97,11c0,.22.22.29.66.37,0,.57.1.43.1,1.12H98c-.07-.07-.15-.13,0-.28,1,.51.2.19.2.88,0,.3,1.26.15,1.45.17-.35.45,0,.52.52.52,0,.65-.87.64-1.37.6,0,.75-.61.84-.61,1.24,0,.1,1.67.4,1.9.17,0,.36-1.71.65-2.08,1.27.63,0,5.9-.47,5.89-.72l-.64-.13c.72-.83.71-1.59,0-1.27a1.24,1.24,0,0,1-.36.12c0-1.19-1.88-2.39-3.07-2.69.11-.28,1.13-.7,1-1.18-.9.42-1.51.33-1.81-.25a4.68,4.68,0,0,0,.73-.4c0-1-2.52.35-2,.55C97.77,11.15,97.05,11,97,11Z"/><path class="cls-5" d="M43.16,8.45c.26,0,.42,0,.49-.22a2.92,2.92,0,0,0-.83.23Z"/><path class="cls-5" d="M115.48,29.77c.07.39,2.08,1.49,2.52,1.53,0,0,0-1.12.11-1.41A9.4,9.4,0,0,0,115.48,29.77Z"/><path class="cls-5" d="M105.5,4.22h0Z"/><path class="cls-5" d="M120.47,12.2c.36,0,.52-.29.53-.56-.2-.08-.94-.3-.3.18-.23,0-.37.09-.59.09A.37.37,0,0,0,120.47,12.2Z"/><path class="cls-5" d="M105.47,4.22c-.22,0,.22.21.52.25A1.33,1.33,0,0,0,105.47,4.22Z"/><path class="cls-5" d="M106.41,4.38h-.12a4.57,4.57,0,0,0,1.65.05c-.41.06-1.12.19-1.12.17,0,.19,1.28.13,1.44.18-.43,0-.79,0-1.21,0,.07.92,2.57,0,3.4-.18a1.09,1.09,0,0,0,.39.19c0,.1-.25.06-.27.19.26,0,.7,0,.94.06-.05,0,0,.08,0,.14.52,0,.73-.15,1.3-.19a6.08,6.08,0,0,0-1.94-.46h.2l-.49-.17a16.52,16.52,0,0,0,3.54-.31c-1.18-.57-3.18-.28-4.47-.29l.11.05h-.32s0,0,0,0c-.21,0-.43,0-.64,0,.12.25.79.21,1,.21l.91,0a8.26,8.26,0,0,1-.86,0,.41.41,0,0,0,.18.16,3.86,3.86,0,0,0-1.27-.1s0-.07,0-.12-1.56-.43-.81.21A7.57,7.57,0,0,0,107,4.1c-.11,0-.28,0-.44-.09a1.31,1.31,0,0,1,.19-.07,2.68,2.68,0,0,0-1.32.08,2.16,2.16,0,0,0,.51.16C105.9,4.26,106.14,4.32,106.41,4.38Z"/><path class="cls-5" d="M111.42,12.75a.69.69,0,0,1,0,.13C111.46,12.79,111.44,12.76,111.42,12.75Z"/><path class="cls-5" d="M117.41,12.72c.16-.22.32-.43.5-.64C117.73,12.07,117,12.41,117.41,12.72Z"/><path class="cls-5" d="M101.3,17.58c0,.32.18.54.19.83-.31.05-2.81-.44-2.8.12,0,.82,4.3,1.25,3.36,2.83l.07,0c.12,2.17-.49,1.6-2.05,1.82-1.41-.1-2.78-.47-4.17-.57-1.64-.11-1,.95-1,1.74,0,.57-1.08,4.78.18,4.86s1.7-.37,2.48.82c.61.94,2.51-.52,3.54-.14a5.62,5.62,0,0,0,2.42-1.92c-2-.87,2.61-2.89,2.66-3.08-.89-2.25,2.48-.48,3.49-1,2.08-1.06,2.35-.47,3.94,1.17-.3-.64,6.85,4.89,4.63,4.69.16.94,1.34-.91,1.38-.73-.27-1.54-1.09-1.34,1-.79,0-1.31-2.29-1-2.5-2.18-1.48-.13-3.82-2.1-4-3.52-.14-.92,4.36,2.16,4.75,2.2.18,1,2.35,1.23,2.64,2.78a5.28,5.28,0,0,0,2.89,2.82c-.46,1,.23,1.5,1.34,1.62a5.35,5.35,0,0,1-.5-1.54c.47.41,1,.72,1.55.43-.95-.79-1.41-1.57-2.24-2.36-.14-.7,1.23.24,1.25.24a1.25,1.25,0,0,0-.14-.66c.81-.15.92-.51,1.78.09,1.11.79,1-.25,2-.11,0,.14.3.32.35.41-.44.18-3-.24-2.78.73.16.69,1.24.23.17,1.34a10.77,10.77,0,0,1,2.37,1.77.42.42,0,0,1-.23.17c2.8.26,5.1,1.37,7.85.62a10.32,10.32,0,0,1,0,3.55c0,.38.11,1.65-.21,1.9-.12.09,1.17,2.48,1.2,3,.16,3.4,5.25,5.23,6,8.33.43,1.87,2,3,3.06,4.45a33.05,33.05,0,0,1,3.11,5.51c2,4,4.68.7,7.91-.23a76.42,76.42,0,0,0-2.53-11c-.84-.53-.37-1.39-.75-2.14-.31,0-.11.53-.48.59-.54-1.48-2.36-2.23-3.12-3.73-1.52-3,5.31-.48,6.25.83-1.43-4.83-15.26-22-25.07-29-4.48-3.21-8.47-7.13-14.17-10.39-1,.15-2.12-.15-3,.17l.23.08a2.24,2.24,0,0,0-1,.1,1.62,1.62,0,0,1,.41,0s-2-.16-2.11.1l.39,0a1.68,1.68,0,0,0-.47.11,14.32,14.32,0,0,0,1.45-.1c-.15.48-4.61,2.31-5.18,2.35.25,0,.36.08.67.13-.88-.1-4.74.67-2.71,2.05a1,1,0,0,0-.42.39,2,2,0,0,1,.74,0c0,.47-.47.17-.44.46.11,1,3,.28,3.3.08,1-.61,1.25,0,1.84.89.22.33,1.16,2.1,1.6,2.15s2.81-.53,2.78-1.28c-1.92-.33,1.11-1.6,1.07-1.76-.24-.9-1.46-.61-1.62-1.59s2.91-.7,2.7-1.33c.27-.36,2.45-1.55,3-.2a15.14,15.14,0,0,1-3,1.11c.28.35.22.74.79.9-1,1.26,5.72,1,6.26,1.62-1.41.53-3-.49-4.28.21-.43.22,1.09.78,1.11,1.24,0-.51-3.46.27-3.18,2.17l-1.06,0a.46.46,0,0,1,.07-.22c-.87-.31-4.4,1-4.25-.13-.94-.16-2.06-.09-3-.16-.08.22,0-.1,0-.52.21.08.55-.05.6.27.07-.45-.16-.58-.51-.63.09-.37.19-.69.27-.69a2.27,2.27,0,0,1-.5-.95c-1.82.73-1.84.73-.82,2.45.46.77-1.37.69-1.88.65-1.72-.13-1.52,1.39-2.93,1.7C103.57,17,103.29,17.72,101.3,17.58Zm45.28,14.19a.72.72,0,0,1-.35,0c-1.81-.22-2.76-2.86-4.38-3.17C143.53,28.26,145,31.34,146.58,31.77Zm-16.84-8.25c1.79-.25,1.37-.78,3.12.77.72.64,2.24,1.39,3,.2-.4,0-1.4-.17-1.55-.66-.07-.24,1.92-.68,2.55-.82-.4.21.77,1.35-.77,1.54,1.37,1.85,4.62,1.67,5.44,4.05-.86-.05-1,.64-1.88.54-1.95-.22-3.54-1.39-5.38-1.58-1.52-.16-2.63.64-4.14.39,0,0,0,0,.06,0-1.63-1.79-.5-1.44-1-3.24C129.43,24.15,130,24,129.74,23.52Z"/><path class="cls-5" d="M112.11,14.09q-.09-.18-.21,0c.89.6.65-.5,1.23-.57-.7-1.15-2,.07-.65.34C112.49,14,112.31,14.08,112.11,14.09Z"/><path class="cls-5" d="M136.89,34.22a6.59,6.59,0,0,0-1.76.45C135.36,35.62,136.91,34.67,136.89,34.22Z"/><path class="cls-5" d="M46.49,7.16a3.62,3.62,0,0,1-.4,0,3,3,0,0,0,.58-.06c.65,0,1.25-.11,1.07-.27L48,6.81c-.39-.36-1.94-.18-2.44-.14-.14.08-.12.1.12.09a1.37,1.37,0,0,1-.24.07,3.06,3.06,0,0,0,.61,0,1.15,1.15,0,0,1-.8.18A2.6,2.6,0,0,0,46.49,7.16Z"/><path class="cls-5" d="M44.4,7.55a1.18,1.18,0,0,0,.38-.1c-.28,0-.06-.17-.52-.15C44.1,7.39,44.2,7.56,44.4,7.55Z"/><path class="cls-5" d="M46.2,8a4.12,4.12,0,0,0-1,.3c.4-.26,2.39.34,2.37-.68,0,0-1.58,0-1.72,0s.16.08.46.07c-.41.26-.76-.09-1.13.13,0,0,.06.07.13.1A2.56,2.56,0,0,1,46.2,8Z"/><path class="cls-5" d="M50,7.92c-1.23.23,1.11.26,1.45.24,1.27-.73,4,.56,5.39-.36a1.23,1.23,0,0,1-.25,0A1,1,0,0,1,57,7.72c-.06-.37-5.8.17-5.39,0-.15-.06-.8.07-.61-.13l.77,0c-.11-.29-3.06-.31-3.35-.13a2.37,2.37,0,0,0,1,.19C49.71,7.44,49.93,7.53,50,7.92Z"/><path class="cls-5" d="M43.69,11.22c.4-.88-2,0-1.52-.1C40.89,11.33,43.34,11.32,43.69,11.22Z"/><path class="cls-5" d="M42.53,9.53c.68.93,2.47.31,3.18-.14l-.38,0c.5-.35-.19-.13-.45-.1a4.88,4.88,0,0,0,1.06-.35c-.12.09-3.32.25-1.88.28C43.52,9.56,43,9.2,42.53,9.53Z"/><path class="cls-5" d="M50.26,7.18A.91.91,0,0,0,50.8,7a10.42,10.42,0,0,0-1.58.14Z"/><path class="cls-5" d="M45.3,8h0Z"/><path class="cls-5" d="M44.29,8l-.07.07c.27,0,.66-.07,1.05-.1-.23-.06-1.09-.39-1.08-.14v0L44,8A.38.38,0,0,0,44.29,8Z"/><path class="cls-5" d="M49.61,6.34l.21-.12-.62,0C49,6.39,49.91,6.33,49.61,6.34Z"/><path class="cls-5" d="M52.14,6.67a.8.8,0,0,1-.25,0l-.07,0Z"/><path class="cls-5" d="M51.65,6.3a1,1,0,0,0-.41.06Z"/><path class="cls-5" d="M50.1,7c.45-.53-1.47-.39-1,0C48.18,7.05,49.66,7,50.1,7Z"/><path class="cls-5" d="M51.8,6.27l-.15,0c.51,0,1.3.06,1.53.07a8.72,8.72,0,0,0-1.61.18.39.39,0,0,0,.32.15A12.52,12.52,0,0,1,54,6.64s0-.06,0-.12a2.46,2.46,0,0,1,1.85.19c-.32,0-2.6-.22-1.59.21a6.77,6.77,0,0,0-1.11.19c1.81-.19,4.69.84,5.92-.36.06-.06-.46,0-.66,0,.3-.26,1-.14,1.11-.49a12.71,12.71,0,0,0,1.87-.39c0-.08-.17-.09-.32-.12.29,0,.46,0,.55-.12l-.42,0c1.61-.42,3.36-.39,5-.85a7,7,0,0,1-.9,0c.15,0,2,0,2.07-.23s-2.92.2-1.77-.1c-2.24-.78-8.55-.19-10.77.66L56,5.05a5.74,5.74,0,0,0-.64.11,13,13,0,0,0,1.39-.09,7.07,7.07,0,0,0-1.35.2c.28,0,.55,0,.82,0l-.57.08c.08.13.46.18,1,.18.29.08.18.12-.3.12.2,0,.72.21.67.25-1,.7-1.17-.09-1.78.27.31-.18.41-.26-.06-.25l0,0c-.41.23-1.67-.3-2.29-.29-.12.07.17.07.33.1a7.85,7.85,0,0,0-1.08.08s.08.06.13.08a1.52,1.52,0,0,0-.78.1.89.89,0,0,0,.56.09l-.95,0C50.83,6.29,51.18,6.29,51.8,6.27Zm5.38-.79c.35,0,.72,0,1.08-.08a.58.58,0,0,0-.11,0s.32.13.36.15A7.56,7.56,0,0,1,57.18,5.48Zm2.48-.24.43,0A2.11,2.11,0,0,1,59.66,5.24Z"/><path class="cls-5" d="M53.14,7.11a2,2,0,0,0-1,.33A6.27,6.27,0,0,1,53.14,7.11Z"/><path class="cls-5" d="M50.1,7V7C50.29,6.94,50.25,6.94,50.1,7Z"/><path class="cls-5" d="M56.25,5.62h0Z"/><path class="cls-5" d="M55.21,8.53c-.19.14.55.31.6.31a6.51,6.51,0,0,0,2-.23C57.2,8.48,55.79,8.09,55.21,8.53Z"/></g><path class="cls-5" d="M30.39,125.53c4.3,2.49,4.92,12.05,8.52,15.1S48.68,153.31,52.84,155s17.59,9.49,17.59,9.49-19.12-6.18-24.24-10.32c-4.59-3.71-12.89-18.5-12.89-18.5"/><path class="cls-5" d="M93.14,117.83c.74.59,2.83,2,5.49,3.91a13.7,13.7,0,0,0,6.68,5.22l1.11.39.87.65a43.66,43.66,0,0,1,4.61,6.06c-.25.28-9,8.77-9.32,9.06,1.24-1,7.89-3.24,11.09-6.1.27.28,1.11-6.09.9-6.16-.9-2.7-9.36-6.44-12.26-8.31A97.86,97.86,0,0,0,93.14,117.83Z"/><path class="cls-5" d="M168.81,150.47c-6.89-1.39-15.28-2.08-21.33-1a121.09,121.09,0,0,0-19.7,5.5c-7.74,6.13-20.16,12.06-30.67,16.8-.53.24,45.55-16.69,56.57-17.25,4.14-.21,9.61-.35,15.13-.45Z"/><path class="cls-5" d="M43.48,164.11c-4.15-1.66-5.33-6.51-8.94-9.56-1.58-1.34-2.84-2.5-4-3.61-1.9-3.74-3.66-8.83-6.48-11.22a20.53,20.53,0,0,1-2.89-3.14,3.43,3.43,0,0,0-.63-.86,36.33,36.33,0,0,1-5.72-11.51,4.33,4.33,0,0,0-.5,3.51,80.68,80.68,0,0,1-4.46-7.29,2.59,2.59,0,0,0-1.83.73c-1.5,1.77-.39,2.87,1.06,5.37l.31.53c.31.62.62,1.3.94,2a2.42,2.42,0,0,0-1.57.84c-1.35,1.9-.15,2.9,1.5,5.27l.36.49c.51.86,1.05,1.77,1.56,2.67a7.36,7.36,0,0,0,3,2.48,140.12,140.12,0,0,0,14.6,11.58c1.69,2.05,8.3,10,12.28,13.22,5.12,4.14,21.2,4.16,21.2,4.16S47.64,165.78,43.48,164.11ZM14.15,126.76a4.06,4.06,0,0,1,.35-2A6.1,6.1,0,0,0,14.15,126.76Z"/><path class="cls-5" d="M104.86,127.31c1.74-1.35,3.46-2.75,5.23-4.12l.14-.09-5.78.55a10,10,0,0,1,.32,1.54A14,14,0,0,1,104.86,127.31Z"/><path class="cls-5" d="M169.26,121.62c-3.26-.27-11.24-2.54-15.4-2.83s-14.78,3-20.58,2.11l-9.71.93h0a11.15,11.15,0,0,1,5.57,5.22c1.48,3,1.1,7.84-2.47,9.43a64.71,64.71,0,0,1-7,2.59,67.36,67.36,0,0,1-18.44,7.23c-1.31.33-2.63.59-4,.8a72.1,72.1,0,0,1-10.18,2.2c-6.55,1-14.73,1.71-21.77-.15l-.33,0A6.88,6.88,0,0,1,61.83,148a18.54,18.54,0,0,1-7.56-5.66,8.34,8.34,0,0,1-1.47-2.89,57.72,57.72,0,0,0-7.78-.6A6.3,6.3,0,0,1,38.65,134a7,7,0,0,1-3.19-3.77c-4.37.4-2.13,3.26-.79,5.93,0,0-7.83,16.33-1.76,18.77,3,1.21,6.78,9.59,10.8,10.88,4.57,1.47,14.36,2.69,18.2,2.82s19.3,2.18,26.33,2.43c11.34.41,48.81-17.58,61.57-18.23s38.34-.64,38.34-.64l4.93-31.45C188.19,120.77,172.51,121.89,169.26,121.62Z"/><path class="cls-6" d="M46.29,137.17a6.22,6.22,0,0,1-4.49-4c-4.11-.31-7.8-.58-8.65-.6a25,25,0,0,1-3.9-.43c-1.65-.31-3.22.24-4.65-.68-2.06-1.32-4.17-1.74-5.45-2.59-2.8-1.87-1.85-3-4.5-5.64s-6-2.86-7.07-1.6c-1.47,1.73-.38,2.8,1,5.24.1.17.21.33.31.51.42.87.87,1.8,1.3,2.71a7,7,0,0,0,2.7,2.66,33.85,33.85,0,0,0,22.41,10.52c1.61.2,19.27,1.87,20.83,1.93l-.4-3.74A25.15,25.15,0,0,0,46.29,137.17Z"/><path class="cls-6" d="M51.7,141.64a5.16,5.16,0,0,1-2.79-3c-5.83.08-13,.12-14.21.2a23.71,23.71,0,0,1-3.92-.1c-1.68-.18-3.2.51-4.69-.29-2.17-1.14-4.31-1.38-5.66-2.12-2.94-1.62-2.09-2.81-4.95-5.24s-6.22-2.35-7.18-1C7,132,8.15,132.92,9.76,135.24c.11.16.24.31.35.47.49.84,1,1.73,1.52,2.6a7,7,0,0,0,2.92,2.42,137.79,137.79,0,0,0,21.2,15.8c1.63.05,21.37-7,22.93-7l-1-5.29C55.66,143.39,53.69,142.49,51.7,141.64Z"/><g class="cls-2"><path class="cls-3" d="M37.12,141.75l-.35.38.22.21c2.49,2.34,4.93,4.66,7.29,6.94,1.17,1.14,2.33,2.27,3.45,3.4a18.28,18.28,0,0,0,3.6,3.1,33.27,33.27,0,0,0,8.29,3.48c2.75.85,5.38,1.66,7.83,2.6-2.42-1-5-1.9-7.77-2.81a34.24,34.24,0,0,1-8.15-3.58A18.42,18.42,0,0,1,48,152.38c-1.11-1.15-2.26-2.29-3.43-3.44q-3.53-3.45-7.27-7Z"/></g><path class="cls-5" d="M153.35,119.12c-10.53-1.62-29.28,2-33.1,1.12a88.76,88.76,0,0,1-11.56-4.15c-1.08-.44-3.94-3.65-5.24-4.34-2.34-1.24-4.65-1.75-7.34-2.93-8.11-3.55-11.56,2-10.84,3.92.83,2.15,5.28,5.64,5.28,5.64.71.57,2.76,2,5.35,3.81a13.23,13.23,0,0,0,6.51,5.08l1.08.38.85.63a43.15,43.15,0,0,1,4.49,5.91,68.57,68.57,0,0,1-10.66,9.66c-8.17,1.85-17.09,2.12-27.66.81a39.15,39.15,0,0,1-6.32-1.38c-2.66-.8-5.32-.16-7.5-1.9-3.15-2.52-6.55-3.58-8.5-5.2-4.27-3.53-2.52-5.19-6.4-10s-9.34-5.72-11.32-3.83c-2.7,2.59-1.1,4.52.79,8.76.13.31.28.59.42.89.54,1.5,1.11,3.1,1.65,4.67a11.59,11.59,0,0,0,4,4.82c.47.63.94,1.23,1.42,1.82a70.39,70.39,0,0,0-8-6.62c-3.44-2.84-2.84-5-6-8.88s-9.32-5-10.54-3.19c-1.66,2.5.2,5.42,1.71,8.83.11.25,1.38-.38,1.5-.14.43,1.2,2.63,2.27,3.07,3.53s2.85,7.18,4.35,8.36c11.14,15,16.73,18.23,16.73,18.23,19.31,5,36.8,3.42,38.84,3.71v-3.06c46.61,6.54,78.6-23.49,80.39-26.9"/><path class="cls-6" d="M187.88,153.52l.57-3.62-.4-1.75s-14.58,2.16-21.87,2.43c-7-1.62-16.22-2.53-22.69-1.35a118.7,118.7,0,0,0-19.19,5.36c-7.54,6-19.64,11.76-29.88,16.38-.52.23,44.38-16.26,55.12-16.81C162.3,153.51,187.88,153.52,187.88,153.52Z"/><path class="cls-6" d="M29.4,125.87c4.19,2.44,4.8,11.75,8.31,14.72s9.51,12.36,13.57,14,17.14,9.25,17.14,9.25-18.64-6-23.63-10.06c-4.47-3.62-12.55-18-12.55-18"/><path class="cls-6" d="M14.19,124.6c1.11,4.78,5.5,12.14,9,15.11s5.33,10.31,7.89,13.62c-4.47-3.61-16.4-21.11-16.4-21.11C12.46,127,14.19,124.6,14.19,124.6Z"/><path class="cls-6" d="M25,146.47c3,2.63,5,4.72,8.5,7.69s4.66,7.7,8.71,9.32S61.4,169,61.4,169s-15.67,0-20.66-4c-4.47-3.62-12.35-13.37-12.35-13.37"/><path class="cls-6" d="M90.55,118.38c.71.57,2.76,2,5.35,3.81a13.23,13.23,0,0,0,6.51,5.08l1.08.38.85.63a43.15,43.15,0,0,1,4.49,5.91c-.25.27-8.81,8.54-9.08,8.83,1.21-1,7.69-3.15,10.8-5.94.27.27,1.08-5.94.88-6-.88-2.63-9.12-6.28-12-8.1A98.35,98.35,0,0,0,90.55,118.38Z"/><path class="cls-5" d="M214.94,21.6a16.71,16.71,0,0,1,1.9-.28c.65-.06,1.31-.09,2-.09s1.26,0,1.94.09a16.77,16.77,0,0,1,1.94.28,5.65,5.65,0,0,1,.23,1.15c.09.65.18,1.35.28,2.08s.18,1.45.27,2.13a11.29,11.29,0,0,1,.14,1.29,19.34,19.34,0,0,1,2.22-2.86,14.44,14.44,0,0,1,3.1-2.5A16.06,16.06,0,0,1,233,21.14a18.37,18.37,0,0,1,5-.65,21,21,0,0,1,7.72,1.39,15.43,15.43,0,0,1,6.1,4.29,20.88,20.88,0,0,1,4,7.4,35.08,35.08,0,0,1,1.43,10.58q0,12.21-6.61,19.09T232,70.12a33,33,0,0,1-4.16-.27,24.87,24.87,0,0,1-3.7-.74V90.83c-.74.12-1.52.21-2.35.28s-1.59.09-2.27.09-1.43,0-2.26-.09-1.59-.16-2.27-.28Zm9.15,39.65a18.77,18.77,0,0,0,3.61.93,34.41,34.41,0,0,0,4.8.27,16.93,16.93,0,0,0,6.11-1.06,12.16,12.16,0,0,0,4.76-3.28,16.12,16.12,0,0,0,3.14-5.59,24.79,24.79,0,0,0,1.15-8q0-7.4-2.72-11.74T236,28.44a12.19,12.19,0,0,0-4.44.83,10.89,10.89,0,0,0-3.79,2.5,12.38,12.38,0,0,0-2.68,4.2,16.25,16.25,0,0,0-1,6.06Z"/><path class="cls-5" d="M265,21.6c.68-.13,1.32-.22,1.94-.28s1.26-.09,1.94-.09,1.35,0,2,.09a13.15,13.15,0,0,1,1.85.28c.19.92.37,2.14.56,3.65a33.28,33.28,0,0,1,.27,3.84,19.25,19.25,0,0,1,5.13-5.46,13.63,13.63,0,0,1,8.18-2.31c.5,0,1,0,1.53.05a13.24,13.24,0,0,1,1.34.14,15.24,15.24,0,0,1,.28,1.75c.06.62.09,1.27.09,1.94a20.72,20.72,0,0,1-.14,2.31c-.09.81-.2,1.58-.32,2.31a6.47,6.47,0,0,0-1.53-.18h-1.25a16.26,16.26,0,0,0-4.76.69A9.9,9.9,0,0,0,278,32.78a12.25,12.25,0,0,0-2.87,4.81,24.23,24.23,0,0,0-1.06,7.85V69a22.16,22.16,0,0,1-2.27.27c-.83.06-1.58.09-2.26.09s-1.43,0-2.26-.09-1.62-.15-2.36-.27Z"/><path class="cls-5" d="M312.55,70.12a23.3,23.3,0,0,1-9.71-1.89A19.25,19.25,0,0,1,295.91,63a21.69,21.69,0,0,1-4.11-7.86,34.14,34.14,0,0,1-1.34-9.8,34.12,34.12,0,0,1,1.34-9.79,21.69,21.69,0,0,1,4.11-7.86,19.72,19.72,0,0,1,6.93-5.27,25.25,25.25,0,0,1,19.41,0,19.66,19.66,0,0,1,6.94,5.27,21.69,21.69,0,0,1,4.11,7.86,34.48,34.48,0,0,1,1.34,9.79,34.5,34.5,0,0,1-1.34,9.8A21.69,21.69,0,0,1,329.19,63a19.2,19.2,0,0,1-6.94,5.22A23.22,23.22,0,0,1,312.55,70.12Zm0-7.3q6.38,0,9.43-4.62t3-12.85q0-8.22-3-12.8T312.55,28q-6.37,0-9.38,4.57t-3,12.8q0,8.24,3,12.85T312.55,62.82Z"/><path class="cls-5" d="M343.79,28.9h-7.21l-.37-1.29,15.9-17.75h.74V21.6h12a15.16,15.16,0,0,1,.38,3.51c0,.68,0,1.33-.1,1.94a16.87,16.87,0,0,1-.28,1.85h-12V50.53a47.81,47.81,0,0,0,.32,6.19,9.28,9.28,0,0,0,1.11,3.56,3.73,3.73,0,0,0,2.13,1.66,11.45,11.45,0,0,0,3.37.42,18.42,18.42,0,0,0,3-.23c.92-.15,1.76-.32,2.5-.51a14.61,14.61,0,0,1,.78,3.79c.09,1.3.14,2.44.14,3.42a30.7,30.7,0,0,1-3.88.7,39.79,39.79,0,0,1-4.35.22q-6.65,0-10.4-3.23T343.79,55.8Z"/><path class="cls-5" d="M377.34,47.57c.12,5.18,1.47,9,4,11.37s6.33,3.61,11.33,3.61a33.76,33.76,0,0,0,12.47-2.32,13.7,13.7,0,0,1,1.21,3.38,22.39,22.39,0,0,1,.55,3.93,31,31,0,0,1-6.7,1.94,46.74,46.74,0,0,1-8.09.64A30.36,30.36,0,0,1,381,68.32a20,20,0,0,1-7.63-5.08A20.31,20.31,0,0,1,369,55.48a33.36,33.36,0,0,1-1.38-9.85A34.62,34.62,0,0,1,369,35.79a22.1,22.1,0,0,1,4.11-7.95,19.77,19.77,0,0,1,7-5.36,22.94,22.94,0,0,1,9.93-2,20.75,20.75,0,0,1,8.6,1.66,17.5,17.5,0,0,1,6.19,4.58,19.7,19.7,0,0,1,3.79,6.93,28.15,28.15,0,0,1,1.3,8.74c0,.86,0,1.77-.1,2.72s-.12,1.78-.18,2.45Zm23.48-6.84a17.5,17.5,0,0,0-.69-4.94,12.92,12.92,0,0,0-2-4.12,9.86,9.86,0,0,0-3.42-2.82,10.81,10.81,0,0,0-4.94-1.06q-5.64,0-8.64,3.42t-3.66,9.52Z"/><path class="cls-5" d="M448.88,60.79a14.25,14.25,0,0,1,1.3,3.24,17.05,17.05,0,0,1,.64,4,34.06,34.06,0,0,1-12.47,2.12q-11.84,0-17.84-6.7t-6-18.07A31.24,31.24,0,0,1,416,35.56a22.22,22.22,0,0,1,4.39-7.86,20.67,20.67,0,0,1,7.25-5.27,24.6,24.6,0,0,1,10.08-1.94,44.52,44.52,0,0,1,6.84.46,28.16,28.16,0,0,1,5.64,1.48,18.66,18.66,0,0,1-.42,3.65,16,16,0,0,1-1.15,3.65,31.73,31.73,0,0,0-10.36-1.57q-7.11,0-10.63,4.72t-3.51,12.47q0,8.88,4,13T439,62.45a32.72,32.72,0,0,0,5.13-.37A23.27,23.27,0,0,0,448.88,60.79Z"/><path class="cls-5" d="M458.59,28.9h-7.21L451,27.61l15.9-17.75h.74V21.6h12a15.19,15.19,0,0,1,.37,3.51c0,.68,0,1.33-.09,1.94a16.87,16.87,0,0,1-.28,1.85h-12V50.53a46.07,46.07,0,0,0,.32,6.19,9.28,9.28,0,0,0,1.11,3.56,3.73,3.73,0,0,0,2.13,1.66,11.4,11.4,0,0,0,3.37.42,18.51,18.51,0,0,0,3-.23q1.38-.23,2.49-.51a14.63,14.63,0,0,1,.79,3.79c.09,1.3.14,2.44.14,3.42a31,31,0,0,1-3.88.7,39.79,39.79,0,0,1-4.35.22q-6.66,0-10.4-3.23T458.59,55.8Z"/><path class="cls-5" d="M492.14,47.57q.18,7.77,4,11.37t11.32,3.61A33.78,33.78,0,0,0,520,60.23a13.71,13.71,0,0,1,1.2,3.38,21.51,21.51,0,0,1,.56,3.93,31.17,31.17,0,0,1-6.7,1.94,46.74,46.74,0,0,1-8.09.64,30.36,30.36,0,0,1-11.09-1.8,19.86,19.86,0,0,1-7.63-5.08,20.31,20.31,0,0,1-4.39-7.76,33.35,33.35,0,0,1-1.39-9.85,35,35,0,0,1,1.34-9.84,22.27,22.27,0,0,1,4.12-7.95,19.77,19.77,0,0,1,7-5.36,22.94,22.94,0,0,1,9.93-2,20.78,20.78,0,0,1,8.6,1.66,17.5,17.5,0,0,1,6.19,4.58,19.7,19.7,0,0,1,3.79,6.93,28.44,28.44,0,0,1,1.3,8.74c0,.86,0,1.77-.1,2.72s-.12,1.78-.18,2.45Zm23.48-6.84a17.15,17.15,0,0,0-.7-4.94,12.7,12.7,0,0,0-2-4.12,9.86,9.86,0,0,0-3.42-2.82,10.84,10.84,0,0,0-4.94-1.06q-5.64,0-8.65,3.42t-3.65,9.52Z"/><path class="cls-5" d="M562.48,1.26A22.35,22.35,0,0,1,564.79,1c.86-.06,1.6-.1,2.22-.1s1.43,0,2.26.1a22.5,22.5,0,0,1,2.27.27V67.72a64.49,64.49,0,0,1-7.86,1.71,62.24,62.24,0,0,1-9.71.69,35.27,35.27,0,0,1-9.47-1.24,19.39,19.39,0,0,1-13.08-11.51,28.5,28.5,0,0,1-1.94-11.18,30.46,30.46,0,0,1,1.71-10.45A23.54,23.54,0,0,1,536,27.65a21.63,21.63,0,0,1,7.54-5.22,24.88,24.88,0,0,1,9.75-1.85,33.32,33.32,0,0,1,4.85.37,31.88,31.88,0,0,1,4.3.93Zm0,28.38a20.3,20.3,0,0,0-4-1.11,26.74,26.74,0,0,0-4.63-.37,14.45,14.45,0,0,0-6.56,1.39,12.81,12.81,0,0,0-4.58,3.79A16.39,16.39,0,0,0,540.07,39a27.51,27.51,0,0,0-.88,7.17q.09,8.78,4.16,12.56t11.09,3.8a37.83,37.83,0,0,0,4.43-.24,20.88,20.88,0,0,0,3.61-.69Z"/><path class="cls-5" d="M214.94,99.44c.62-.12,1.25-.21,1.9-.27s1.31-.1,2-.1,1.26,0,1.94.1a19.29,19.29,0,0,1,1.94.27,5.82,5.82,0,0,1,.23,1.16c.09.65.18,1.34.28,2.08s.18,1.45.27,2.12a11.16,11.16,0,0,1,.14,1.3,19.41,19.41,0,0,1,2.22-2.87,14.71,14.71,0,0,1,3.1-2.49A16.07,16.07,0,0,1,233,99a18.37,18.37,0,0,1,5-.65,21.18,21.18,0,0,1,7.72,1.39,15.45,15.45,0,0,1,6.1,4.3,20.84,20.84,0,0,1,4,7.39A35.1,35.1,0,0,1,257.28,122q0,12.19-6.61,19.08T232,148a31.26,31.26,0,0,1-4.16-.28,23.66,23.66,0,0,1-3.7-.74v21.72a23.29,23.29,0,0,1-2.35.28c-.83.06-1.59.09-2.27.09s-1.43,0-2.26-.09a19.83,19.83,0,0,1-2.27-.28Zm9.15,39.66a18,18,0,0,0,3.61.92,32.72,32.72,0,0,0,4.8.28,16.93,16.93,0,0,0,6.11-1.07,12.06,12.06,0,0,0,4.76-3.28,16,16,0,0,0,3.14-5.59,24.73,24.73,0,0,0,1.15-8q0-7.4-2.72-11.74T236,106.28a12,12,0,0,0-4.44.84,10.86,10.86,0,0,0-3.79,2.49,12.32,12.32,0,0,0-2.68,4.21,16.2,16.2,0,0,0-1,6.05Z"/><path class="cls-5" d="M264.76,79.11a22.35,22.35,0,0,1,2.27-.28c.83-.06,1.58-.09,2.26-.09s1.44,0,2.27.09a22.13,22.13,0,0,1,2.26.28v53.42a14.45,14.45,0,0,0,.46,4.07,5.55,5.55,0,0,0,1.25,2.27,3.68,3.68,0,0,0,1.85,1,10.28,10.28,0,0,0,2.27.23q.83,0,1.89-.09a10.68,10.68,0,0,0,1.8-.28,28,28,0,0,1,.83,7,12.34,12.34,0,0,1-3.14.6c-1.23.09-2.37.14-3.42.14a18.47,18.47,0,0,1-5-.65,10.66,10.66,0,0,1-4.07-2.13,10,10,0,0,1-2.77-4,16.42,16.42,0,0,1-1-6.19Z"/><path class="cls-5" d="M312.92,115.62c0-3.64-.93-6.16-2.77-7.58s-4.53-2.13-8-2.13a35,35,0,0,0-6.06.51,47.45,47.45,0,0,0-5.5,1.34,14.4,14.4,0,0,1-1.75-7.3,42.14,42.14,0,0,1,6.93-1.57,50.35,50.35,0,0,1,7.3-.56q9.24,0,14.05,4.21t4.8,13.45v29.67q-3.22.74-7.85,1.53a56.61,56.61,0,0,1-9.43.78,37.17,37.17,0,0,1-8.18-.83,16.75,16.75,0,0,1-6.19-2.68,12.42,12.42,0,0,1-3.93-4.72,15.71,15.71,0,0,1-1.39-6.93,14.14,14.14,0,0,1,6-12,19.7,19.7,0,0,1,6.38-3,29.32,29.32,0,0,1,7.58-1c2,0,3.59,0,4.85.14s2.32.2,3.19.33Zm0,9q-1.4-.18-3.51-.36c-1.42-.13-2.62-.19-3.61-.19q-5.73,0-8.73,2.13a7.37,7.37,0,0,0-3,6.47,7.92,7.92,0,0,0,1,4.34,7,7,0,0,0,2.54,2.4,8.66,8.66,0,0,0,3.38,1,33.29,33.29,0,0,0,3.51.18,41.7,41.7,0,0,0,4.39-.23,25.73,25.73,0,0,0,4-.69Z"/><path class="cls-5" d="M331,99.44c.67-.12,1.34-.21,2-.27s1.31-.1,2-.1a18.3,18.3,0,0,1,1.89.1c.59.06,1.22.15,1.9.27.18.93.37,2.18.55,3.75a33.6,33.6,0,0,1,.28,3.93A19,19,0,0,1,342,104a18.31,18.31,0,0,1,3.28-2.82,17,17,0,0,1,9.52-2.82q8.13,0,12,4.67t3.88,13.82v30c-.68.12-1.45.21-2.31.28s-1.64.09-2.31.09-1.44,0-2.27-.09-1.59-.16-2.26-.28V119.32q0-6.57-2-9.66t-6.47-3.1a13.21,13.21,0,0,0-4.9.92,11,11,0,0,0-4.06,2.87,14.31,14.31,0,0,0-2.82,5,23,23,0,0,0-1.06,7.44v24c-.68.12-1.44.21-2.27.28s-1.59.09-2.26.09-1.45,0-2.31-.09-1.64-.16-2.31-.28Z"/><path class="cls-5" d="M386.68,125.42q.18,7.76,4,11.37t11.32,3.6a34,34,0,0,0,12.48-2.31,14,14,0,0,1,1.2,3.37,22.68,22.68,0,0,1,.56,3.93,31.17,31.17,0,0,1-6.7,1.94,46.69,46.69,0,0,1-8.09.65,30.54,30.54,0,0,1-11.09-1.8,19.52,19.52,0,0,1-12-12.85,33.33,33.33,0,0,1-1.39-9.84,35,35,0,0,1,1.34-9.85,22.27,22.27,0,0,1,4.12-7.95,19.94,19.94,0,0,1,7-5.36,23.16,23.16,0,0,1,9.94-2,20.78,20.78,0,0,1,8.6,1.67,17.48,17.48,0,0,1,6.19,4.57,19.82,19.82,0,0,1,3.79,6.94,28.43,28.43,0,0,1,1.29,8.73q0,1.29-.09,2.73c-.06,1-.12,1.77-.18,2.45Zm23.48-6.84a17.17,17.17,0,0,0-.7-5,12.54,12.54,0,0,0-2-4.11A9.86,9.86,0,0,0,404,106.7a10.76,10.76,0,0,0-4.95-1.07q-5.64,0-8.64,3.43t-3.65,9.52Z"/><path class="cls-5" d="M428.36,106.75h-7.2l-.38-1.3,15.9-17.75h.74V99.44h12a15.78,15.78,0,0,1,.37,3.52c0,.67,0,1.32-.09,1.94s-.16,1.23-.28,1.85h-12v21.63a45.9,45.9,0,0,0,.33,6.19,9,9,0,0,0,1.11,3.56,3.78,3.78,0,0,0,2.12,1.66,11.47,11.47,0,0,0,3.38.42,17.28,17.28,0,0,0,2.95-.24c.93-.15,1.76-.32,2.5-.5a14.45,14.45,0,0,1,.78,3.78c.1,1.3.14,2.44.14,3.43a32.25,32.25,0,0,1-3.88.69,39.52,39.52,0,0,1-4.34.23q-6.66,0-10.4-3.23t-3.75-10.73Z"/></svg>