<?xml version="1.0" encoding="UTF-8"?>
<svg width="183px" height="63px" viewBox="0 0 183 63" version="1.1" xmlns="http://www.w3.org/2000/svg" xmlns:xlink="http://www.w3.org/1999/xlink">
    <!-- Generator: Sketch 48.1 (47250) - http://www.bohemiancoding.com/sketch -->
    <title>Page 1</title>
    <desc>Created with Sketch.</desc>
    <defs></defs>
    <g id="Homepage" stroke="none" stroke-width="1" fill="none" fill-rule="evenodd" transform="translate(-20.000000, -18.000000)">
        <g id="Page-1" transform="translate(20.000000, 18.000000)" fill="#FFFFFF">
            <path d="M19.5524194,30.5469613 C21.1593871,30.5469613 22.6451613,30.2500994 24.0080645,29.6546961 C25.3709677,29.0601326 26.532371,28.2375691 27.4939516,27.1878453 C28.4546935,26.1381215 29.2057581,24.9227514 29.7479839,23.5400552 C30.289371,22.1581989 30.5604839,20.679558 30.5604839,19.1049724 L30.5604839,19 C30.5604839,17.4254144 30.289371,15.9385856 29.7479839,14.538674 C29.2057581,13.1396022 28.4375,11.9143646 27.4415323,10.8646409 C26.4455645,9.81491713 25.266129,8.98416575 23.9032258,8.37154696 C22.5403226,7.75976796 21.0545484,7.45303867 19.4475806,7.45303867 C17.8045484,7.45303867 16.3105968,7.75074033 14.9657258,8.34530387 C13.6200161,8.94070718 12.4667903,9.76243094 11.5060484,10.8121547 C10.5444677,11.8618785 9.79340323,13.0780884 9.25201613,14.4599448 C8.70979032,15.8426409 8.43951613,17.320442 8.43951613,18.8950276 L8.43951613,19 C8.43951613,20.5745856 8.70979032,22.0622541 9.25201613,23.461326 C9.79340323,24.8612376 10.5625,26.0856354 11.5584677,27.1353591 C12.5544355,28.1850829 13.7248548,29.016674 15.0705645,29.628453 C16.4154355,30.2410718 17.9093871,30.5469613 19.5524194,30.5469613 M19.4475806,38 C16.6169355,38 14.0131613,37.5013812 11.6370968,36.5041436 C9.26019355,35.5069061 7.20766129,34.1603204 5.47782258,32.4627072 C3.74798387,30.7659337 2.40227419,28.7714586 1.44153226,26.4792818 C0.479951613,24.1879448 0,21.7292818 0,19.1049724 L0,19 C0,16.3756906 0.488967742,13.9178674 1.46774194,11.6256906 C2.44567742,9.33435359 3.80040323,7.3218232 5.53024194,5.58977901 C7.26008065,3.85773481 9.32162903,2.49309392 11.7157258,1.49585635 C14.1089839,0.498618785 16.7217742,0 19.5524194,0 C22.3830645,0 24.986,0.498618785 27.3629032,1.49585635 C29.7389677,2.49309392 31.7923387,3.84051934 33.5221774,5.53729282 C35.2520161,7.23490608 36.5968871,9.22938122 37.5584677,11.5207182 C38.5192097,13.812895 39,16.2707182 39,18.8950276 L39,19 C39,21.6243094 38.5101935,24.0829724 37.5322581,26.3743094 C36.5534839,28.6664862 35.1995968,30.6781768 33.4697581,32.410221 C31.7399194,34.1422652 29.6775323,35.5069061 27.2842742,36.5041436 C24.8901774,37.5013812 22.2782258,38 19.4475806,38" id="Fill-1"></path>
            <path d="M57.5662651,38 C55.4779116,38 53.5372048,37.6051613 51.7449799,36.8172043 C49.9519197,36.0292473 48.411759,34.9623656 47.124498,33.6182796 C45.8364016,32.2741935 44.8273092,30.6974194 44.0963855,28.8870968 C43.3654618,27.0776344 43,25.1505376 43,23.1075269 L43,23 C43,20.9569892 43.3654618,19.0215054 44.0963855,17.1935484 C44.8273092,15.3655914 45.8364016,13.7711828 47.124498,12.4086022 C48.411759,11.0468817 49.9519197,9.9716129 51.7449799,9.1827957 C53.5372048,8.39483871 55.5121606,8 57.6706827,8 C60.3153735,8 62.5081446,8.43010753 64.248996,9.29032258 C65.989012,10.1505376 67.5201928,11.3333333 68.8433735,12.8387097 L63.9879518,18.2150538 C63.0824418,17.2473118 62.1516627,16.4769892 61.1947791,15.9032258 C60.2370602,15.3303226 59.0452369,15.0430108 57.6184739,15.0430108 C56.6085462,15.0430108 55.6948916,15.2496774 54.87751,15.6612903 C54.0592932,16.0737634 53.345494,16.6382796 52.7369478,17.3548387 C52.1275663,18.0722581 51.6576867,18.9055914 51.3273092,19.8548387 C50.9960964,20.8049462 50.8313253,21.8172043 50.8313253,22.8924731 L50.8313253,23 C50.8313253,24.1113978 50.9960964,25.1505376 51.3273092,26.1182796 C51.6576867,27.0860215 52.1365462,27.9286022 52.7630522,28.6451613 C53.3895582,29.3625806 54.1376064,29.9270968 55.0080321,30.3387097 C55.8776225,30.7511828 56.8524659,30.9569892 57.9317269,30.9569892 C59.2540723,30.9569892 60.4116466,30.6797849 61.4036145,30.1236559 C62.3955823,29.5683871 63.3785703,28.8249462 64.3534137,27.8924731 L69,32.7311828 C67.6425703,34.2726882 66.0934297,35.536129 64.3534137,36.5215054 C62.6125622,37.5068817 60.3504578,38 57.5662651,38" id="Fill-3"></path>
            <path d="M93.121673,20.688172 C92.8729734,18.8602151 92.2341901,17.3817204 91.2053232,16.2526882 C90.1756046,15.1236559 88.8098859,14.5591398 87.1064639,14.5591398 C85.4030418,14.5591398 84.0273156,15.1152688 82.9809886,16.2258065 C81.9338099,17.3372043 81.2509506,18.8249462 80.9315589,20.688172 L93.121673,20.688172 Z M87.904943,38 C85.7756654,38 83.7969278,37.6412903 81.9695817,36.9247312 C80.141384,36.208172 78.5627376,35.1866667 77.2319392,33.8602151 C75.9011407,32.5346237 74.8631179,30.9662366 74.1178707,29.155914 C73.3726236,27.3464516 73,25.3303226 73,23.1075269 L73,23 C73,20.9569892 73.3460076,19.0215054 74.0380228,17.1935484 C74.730038,15.3655914 75.6965171,13.7711828 76.9391635,12.4086022 C78.1809582,11.0468817 79.6622966,9.9716129 81.3840304,9.1827957 C83.1049125,8.39483871 85.0121065,8 87.1064639,8 C89.4835894,8 91.5421749,8.43010753 93.2813688,9.29032258 C95.019711,10.1505376 96.4661293,11.3064516 97.6197719,12.7580645 C98.7725627,14.2096774 99.6242738,15.8763441 100.174905,17.7580645 C100.724684,19.6397849 101,21.6021505 101,23.6451613 C101,23.9677419 100.990844,24.3088172 100.973384,24.6666667 C100.955072,25.0253763 100.928456,25.4017204 100.893536,25.7956989 L81.0380228,25.7956989 C81.4281065,27.6597849 82.2357414,29.0668817 83.460076,30.016129 C84.6844106,30.9662366 86.2015209,31.4408602 88.0114068,31.4408602 C89.3596654,31.4408602 90.5665399,31.208172 91.6311787,30.7419355 C92.6958175,30.2765591 93.7953764,29.523871 94.9315589,28.483871 L99.5627376,32.6236559 C98.2136274,34.3088172 96.581749,35.6260215 94.6653992,36.5752688 C92.7490494,37.5245161 90.4949962,38 87.904943,38 Z" id="Fill-5"></path>
            <path d="M117.129817,32.4836957 C119.028398,32.4836957 120.548738,32.028942 121.691684,31.1177536 C122.833785,30.2074058 123.40568,29.0163043 123.40568,27.5452899 L123.40568,26.1268116 C122.701939,25.8115942 121.919935,25.5579493 121.058824,25.3650362 C120.196868,25.1729638 119.273947,25.076087 118.290061,25.076087 C116.566994,25.076087 115.213095,25.4093768 114.229209,26.0742754 C113.244479,26.7400145 112.752535,27.7028986 112.752535,28.9637681 L112.752535,29.0688406 C112.752535,30.1548696 113.1563,30.9954493 113.965517,31.5905797 C114.77389,32.1865507 115.828657,32.4836957 117.129817,32.4836957 M114.703854,38 C113.367254,38 112.110604,37.8161232 110.933063,37.4483696 C109.754677,37.0806159 108.72628,36.5289855 107.84787,35.7934783 C106.968617,35.057971 106.273947,34.1566594 105.764706,33.0878623 C105.254621,32.0199058 105,30.7853043 105,29.384058 L105,29.2789855 C105,27.7382029 105.28099,26.4075652 105.843813,25.2862319 C106.405793,24.1657391 107.188641,23.2373188 108.190669,22.5018116 C109.192698,21.7663043 110.387538,21.2146739 111.776876,20.8469203 C113.165371,20.4791667 114.703854,20.2952899 116.391481,20.2952899 C117.832714,20.2952899 119.089363,20.4003623 120.162272,20.6105072 C121.234337,20.8206522 122.280032,21.1014058 123.300203,21.451087 L123.300203,20.9782609 C123.300203,19.2971014 122.790118,18.019 121.770791,17.1431159 C120.750621,16.2680725 119.239351,15.8297101 117.235294,15.8297101 C115.68774,15.8297101 114.325615,15.9610507 113.148073,16.2237319 C111.969688,16.486413 110.730337,16.8632029 109.43002,17.3532609 L107.425963,11.259058 C108.972673,10.5941594 110.590264,10.0507246 112.27789,9.63043478 C113.965517,9.21014493 116.00417,9 118.395538,9 C120.610548,9 122.500057,9.27171739 124.064909,9.81431159 C125.628917,10.3577464 126.921006,11.1367536 127.941176,12.1521739 C128.995943,13.2028986 129.768876,14.4900362 130.261663,16.013587 C130.753606,17.5371377 131,19.2445652 131,21.1358696 L131,37.4746377 L123.247465,37.4746377 L123.247465,34.4275362 C122.262734,35.5135652 121.085193,36.380413 119.713996,37.0280797 C118.342799,37.6757464 116.672471,38 114.703854,38" id="Fill-7"></path>
            <path d="M138,8.53113553 L146.04888,8.53113553 L146.04888,12.6010147 C146.507242,11.9950952 147.010297,11.414989 147.558045,10.8622894 C148.104945,10.3095897 148.713906,9.81998901 149.384929,9.39178755 C150.055104,8.96347985 150.796448,8.62493407 151.608961,8.37508791 C152.420627,8.12534799 153.3382,8 154.362525,8 C157.433809,8 159.807593,8.93862271 161.484725,10.8150183 C163.16101,12.6922637 164,15.2765568 164,18.5695971 L164,37 L155.95112,37 L155.95112,21.158033 C155.95112,19.2509377 155.527495,17.8110293 154.680244,16.8401136 C153.832994,15.8690916 152.63244,15.3827839 151.07943,15.3827839 C149.525572,15.3827839 148.299389,15.8690916 147.399185,16.8401136 C146.498982,17.8110293 146.04888,19.2509377 146.04888,21.158033 L146.04888,37 L138,37 L138,8.53113553 Z" id="Fill-9"></path>
            <polygon id="Fill-11" points="172.74607 14.2168675 167 14.2168675 167 9.75100402 172.74607 9.75100402 172.74607 4 177.254036 4 177.677319 9.75100402 183 9.75100402 183 14.2168675 177.254036 14.2168675 177.254036 20 172.74607 20"></polygon>
            <path d="M118.454082,60.8711485 C118.725918,60.8711485 119.066327,60.8491148 119.47449,60.8046218 C119.882653,60.7605546 120.316327,60.654112 120.77551,60.4852941 C121.234694,60.316902 121.68949,60.0728291 122.140306,59.7535014 C122.590714,59.4341737 122.994898,58.9996751 123.352041,58.4495798 C123.709184,57.8999104 124.002551,57.2121849 124.232143,56.3872549 C124.461735,55.5623249 124.576531,54.5644258 124.576531,53.3935574 C124.576531,52.2584538 124.470102,51.2426723 124.257653,50.3466387 C124.044796,49.4510308 123.696429,48.6880504 123.211735,48.0581232 C122.727041,47.4286218 122.102041,46.9496303 121.336735,46.6211485 C120.571429,46.2930924 119.627551,46.1288515 118.505102,46.1288515 L114.423469,46.1288515 L114.423469,60.8711485 L118.454082,60.8711485 Z M118.25,44 C121.056122,44 123.215714,44.745098 124.729592,46.2352941 C126.243061,47.7254902 127,49.996549 127,53.047619 C127,54.6442577 126.829796,56.0591989 126.489796,57.2920168 C126.149388,58.5252605 125.622449,59.5630756 124.908163,60.4054622 C124.193878,61.2482745 123.283878,61.891507 122.178571,62.3347339 C121.072857,62.7783866 119.763469,63 118.25,63 L112,63 L112,44 L118.25,44 Z" id="Fill-13"></path>
            <path d="M138.308642,55.7925926 C138.023177,55.9991704 137.648691,56.149437 137.185185,56.2442222 C136.721251,56.3391111 136.235597,56.4164741 135.727366,56.4764148 C135.219136,56.5367704 134.706305,56.6056296 134.1893,56.6829926 C133.671868,56.7603556 133.208362,56.8851111 132.798354,57.0568444 C132.387918,57.2286815 132.053556,57.4737333 131.795267,57.7921037 C131.536551,58.1105778 131.407407,58.5447852 131.407407,59.0949333 C131.407407,59.456237 131.483053,59.7613333 131.634774,60.0108444 C131.786066,60.2603556 131.98251,60.4624741 132.223251,60.6172 C132.463992,60.7720296 132.744856,60.8838222 133.065844,60.9526815 C133.386831,61.0215407 133.725366,61.0555556 134.082305,61.0555556 C134.831276,61.0555556 135.473251,60.9567259 136.00823,60.7590667 C136.54321,60.5613037 136.979967,60.3117926 137.31893,60.0108444 C137.657465,59.7097926 137.907407,59.3829185 138.067901,59.0305333 C138.228395,58.6780444 138.308642,58.3467111 138.308642,58.0372593 L138.308642,55.7925926 Z M142,62.662963 C141.607539,62.8873778 141.063786,63 140.368313,63 C139.779835,63 139.311728,62.8399852 138.963992,62.5203704 C138.616255,62.2007556 138.442387,61.6777778 138.442387,60.9518519 C137.817959,61.6777778 137.091564,62.2007556 136.262346,62.5203704 C135.433128,62.8399852 134.537037,63 133.574074,63 C132.949646,63 132.356996,62.9307259 131.795267,62.7925926 C131.233539,62.6544593 130.747457,62.4385481 130.337449,62.1444444 C129.927012,61.8507556 129.601852,61.4663259 129.361111,60.9907407 C129.12037,60.5155704 129,59.9407407 129,59.2666667 C129,58.5063111 129.133745,57.8840889 129.401235,57.4 C129.668724,56.9163259 130.020634,56.5229778 130.457819,56.2203704 C130.894576,55.9181778 131.394033,55.6888889 131.955761,55.5333333 C132.51749,55.3777778 133.092593,55.2481481 133.68107,55.1444444 C134.30507,55.0237333 134.898148,54.9329926 135.459877,54.8722222 C136.021605,54.8118667 136.516461,54.7255852 136.944444,54.612963 C137.372428,54.5007556 137.710963,54.3366963 137.960905,54.1203704 C138.21042,53.9044593 138.335391,53.5888889 138.335391,53.1740741 C138.335391,52.6904 138.24177,52.3015111 138.054527,52.0074074 C137.867284,51.7137185 137.626543,51.4888889 137.332305,51.3333333 C137.038066,51.1777778 136.707877,51.0740741 136.342593,51.0222222 C135.976881,50.9703704 135.61577,50.9444444 135.259259,50.9444444 C134.296296,50.9444444 133.493827,51.1218815 132.851852,51.4759259 C132.209877,51.8303852 131.86214,52.5 131.808642,53.4851852 L129.534979,53.4851852 C129.570502,52.6555556 129.748971,51.9555556 130.069959,51.3851852 C130.390947,50.8148148 130.81893,50.3526074 131.353909,49.9981481 C131.888889,49.6441037 132.499514,49.3888889 133.186214,49.2333333 C133.872486,49.0777778 134.608082,49 135.393004,49 C136.017004,49 136.636831,49.0433481 137.252058,49.1296296 C137.867284,49.2159111 138.424412,49.3925185 138.923868,49.6598667 C139.422897,49.9272148 139.824132,50.3024148 140.127572,50.7852593 C140.430584,51.2681037 140.582305,51.8975852 140.582305,52.6733926 L140.582305,59.5550667 C140.582305,60.0727556 140.613226,60.452 140.675926,60.6934222 C140.738198,60.9348444 140.947588,61.0555556 141.304527,61.0555556 C141.500543,61.0555556 141.73251,61.0211259 142,60.9518519 L142,62.662963 Z" id="Fill-15"></path>
            <path d="M149,49.1517857 L149,51.1607143 L146.387681,51.1607143 L146.387681,59.7589286 C146.387681,60.0267857 146.408681,60.2410714 146.451087,60.4017857 C146.493087,60.5625 146.573536,60.6876429 146.692029,60.7767857 C146.810116,60.8663571 146.974971,60.9241071 147.186594,60.9508929 C147.397812,60.9776786 147.672435,60.9910714 148.01087,60.9910714 L149,60.9910714 L149,63 L147.351449,63 C146.793478,63 146.315551,62.9598214 145.918478,62.8794643 C145.521,62.7991071 145.199609,62.6517857 144.95471,62.4375 C144.709406,62.2232143 144.527507,61.9197857 144.40942,61.5267857 C144.290928,61.1342143 144.231884,60.6160714 144.231884,59.9732143 L144.231884,51.1607143 L142,51.1607143 L142,49.1517857 L144.231884,49.1517857 L144.231884,45 L146.387681,45 L146.387681,49.1517857 L149,49.1517857 Z" id="Fill-17"></path>
            <path d="M161.308642,55.7925926 C161.023177,55.9991704 160.648691,56.149437 160.185185,56.2442222 C159.721251,56.3391111 159.235597,56.4164741 158.727366,56.4764148 C158.219136,56.5367704 157.706305,56.6056296 157.1893,56.6829926 C156.671868,56.7603556 156.208362,56.8851111 155.798354,57.0568444 C155.387918,57.2286815 155.053556,57.4737333 154.795267,57.7921037 C154.536551,58.1105778 154.407407,58.5447852 154.407407,59.0949333 C154.407407,59.456237 154.483053,59.7613333 154.634774,60.0108444 C154.786066,60.2603556 154.98251,60.4624741 155.223251,60.6172 C155.463992,60.7720296 155.744856,60.8838222 156.065844,60.9526815 C156.386831,61.0215407 156.725366,61.0555556 157.082305,61.0555556 C157.831276,61.0555556 158.473251,60.9567259 159.00823,60.7590667 C159.54321,60.5613037 159.979967,60.3117926 160.31893,60.0108444 C160.657465,59.7097926 160.907407,59.3829185 161.067901,59.0305333 C161.228395,58.6780444 161.308642,58.3467111 161.308642,58.0372593 L161.308642,55.7925926 Z M165,62.662963 C164.607539,62.8873778 164.063786,63 163.368313,63 C162.779835,63 162.311728,62.8399852 161.963992,62.5203704 C161.616255,62.2007556 161.442387,61.6777778 161.442387,60.9518519 C160.817959,61.6777778 160.091564,62.2007556 159.262346,62.5203704 C158.433128,62.8399852 157.537037,63 156.574074,63 C155.949646,63 155.356996,62.9307259 154.795267,62.7925926 C154.233539,62.6544593 153.747457,62.4385481 153.337449,62.1444444 C152.927012,61.8507556 152.601852,61.4663259 152.361111,60.9907407 C152.12037,60.5155704 152,59.9407407 152,59.2666667 C152,58.5063111 152.133745,57.8840889 152.401235,57.4 C152.668724,56.9163259 153.020634,56.5229778 153.457819,56.2203704 C153.894576,55.9181778 154.394033,55.6888889 154.955761,55.5333333 C155.51749,55.3777778 156.092593,55.2481481 156.68107,55.1444444 C157.30507,55.0237333 157.898148,54.9329926 158.459877,54.8722222 C159.021605,54.8118667 159.516461,54.7255852 159.944444,54.612963 C160.372428,54.5007556 160.710963,54.3366963 160.960905,54.1203704 C161.21042,53.9044593 161.335391,53.5888889 161.335391,53.1740741 C161.335391,52.6904 161.24177,52.3015111 161.054527,52.0074074 C160.867284,51.7137185 160.626543,51.4888889 160.332305,51.3333333 C160.038066,51.1777778 159.707877,51.0740741 159.342593,51.0222222 C158.976881,50.9703704 158.61577,50.9444444 158.259259,50.9444444 C157.296296,50.9444444 156.493827,51.1218815 155.851852,51.4759259 C155.209877,51.8303852 154.86214,52.5 154.808642,53.4851852 L152.534979,53.4851852 C152.570502,52.6555556 152.748971,51.9555556 153.069959,51.3851852 C153.390947,50.8148148 153.81893,50.3526074 154.353909,49.9981481 C154.888889,49.6441037 155.499514,49.3888889 156.186214,49.2333333 C156.872486,49.0777778 157.608082,49 158.393004,49 C159.017004,49 159.636831,49.0433481 160.252058,49.1296296 C160.867284,49.2159111 161.424412,49.3925185 161.923868,49.6598667 C162.422897,49.9272148 162.824132,50.3024148 163.127572,50.7852593 C163.430584,51.2681037 163.582305,51.8975852 163.582305,52.6733926 L163.582305,59.5550667 C163.582305,60.0727556 163.613226,60.452 163.675926,60.6934222 C163.738198,60.9348444 163.947588,61.0555556 164.304527,61.0555556 C164.500543,61.0555556 164.73251,61.0211259 165,60.9518519 L165,62.662963 Z" id="Fill-19"></path>
        </g>
    </g>
</svg>