<?xml version="1.0" encoding="utf-8"?>
<!-- Generator: Adobe Illustrator 22.1.0, SVG Export Plug-In . SVG Version: 6.00 Build 0)  -->
<svg version="1.1" id="Layer_1" xmlns="http://www.w3.org/2000/svg" xmlns:xlink="http://www.w3.org/1999/xlink" x="0px" y="0px"
	 viewBox="0 0 179.7 62.5" style="enable-background:new 0 0 179.7 62.5;" xml:space="preserve">
<style type="text/css">
	.st0{fill:#FFFFFF;}
</style>
<g>
	<path class="st0" d="M0,18.6c0-2.8,0.5-5.4,1.4-7.7c1-2.3,2.3-4.3,4-5.9c1.7-1.6,3.7-2.9,6-3.7C13.8,0.4,16.3,0,19.1,0
		c2.8,0,5.3,0.4,7.7,1.3c2.3,0.9,4.3,2.1,6,3.7c1.7,1.6,3,3.6,4,5.9c0.9,2.3,1.4,4.9,1.4,7.7c0,2.8-0.5,5.4-1.4,7.7
		c-1,2.3-2.3,4.3-4,5.9c-1.7,1.6-3.7,2.9-6,3.7c-2.3,0.9-4.9,1.3-7.7,1.3c-2.8,0-5.3-0.4-7.6-1.3c-2.3-0.9-4.4-2.1-6-3.7
		c-1.7-1.6-3-3.6-4-5.9S0,21.4,0,18.6z M8.1,18.6c0,1.7,0.3,3.2,0.8,4.6c0.5,1.4,1.3,2.6,2.2,3.6c1,1,2.1,1.8,3.5,2.4
		c1.4,0.6,2.9,0.9,4.5,0.9c1.7,0,3.2-0.3,4.5-0.9c1.3-0.6,2.5-1.4,3.5-2.4c1-1,1.7-2.2,2.2-3.6c0.5-1.4,0.8-2.9,0.8-4.6
		c0-1.6-0.3-3.1-0.8-4.5c-0.5-1.4-1.3-2.6-2.2-3.6c-1-1-2.1-1.8-3.5-2.4c-1.4-0.6-2.9-0.9-4.5-0.9c-1.7,0-3.2,0.3-4.5,0.9
		c-1.4,0.6-2.5,1.4-3.5,2.4c-1,1-1.7,2.2-2.2,3.6C8.4,15.4,8.1,17,8.1,18.6z"/>
	<path class="st0" d="M66.6,10.1c-0.8-0.9-1.7-1.6-2.8-2.1c-1.1-0.5-2.4-0.8-3.9-0.8S57.1,7.5,55.9,8c-1.2,0.6-2.3,1.4-3.2,2.4
		c-0.9,1-1.6,2.2-2.1,3.6c-0.5,1.4-0.8,2.9-0.8,4.5c0,1.7,0.3,3.2,0.8,4.6c0.5,1.4,1.2,2.6,2.1,3.6c0.9,1,2,1.8,3.2,2.4
		c1.2,0.6,2.5,0.9,3.9,0.9c1.6,0,3-0.3,4.2-1c1.2-0.7,2.2-1.6,3.1-2.8l6.5,4.9c-1.5,2.1-3.4,3.7-5.7,4.7c-2.3,1-4.7,1.5-7.1,1.5
		c-2.8,0-5.3-0.4-7.6-1.3c-2.3-0.9-4.4-2.1-6-3.7c-1.7-1.6-3-3.6-4-5.9s-1.4-4.9-1.4-7.7c0-2.8,0.5-5.4,1.4-7.7c1-2.3,2.3-4.3,4-5.9
		c1.7-1.6,3.7-2.9,6-3.7C55.4,0.4,57.9,0,60.7,0c1,0,2,0.1,3.1,0.3C64.9,0.5,66,0.8,67,1.1s2.1,0.9,3,1.6c1,0.7,1.8,1.5,2.6,2.4
		L66.6,10.1z"/>
	<path class="st0" d="M78,0.9h24v7.2H85.8v6.6h15.3v7.2H85.8v7.2H103v7.2H78V0.9z"/>
	<path class="st0" d="M120.9,0.9h6.5l15.4,35.4h-8.8l-3-7.5h-13.8l-3,7.5h-8.6L120.9,0.9z M123.9,11.2l-4.3,11h8.7L123.9,11.2z"/>
	<path class="st0" d="M146.3,0.9h10.6l15,24.6h0.1V0.9h7.8v35.4h-10.2l-15.5-25.2h-0.1v25.2h-7.8V0.9z"/>
	<path class="st0" d="M2.9,44.1H9c1.5,0,2.9,0.2,4.2,0.5c1.3,0.3,2.5,0.9,3.5,1.6c1,0.7,1.8,1.7,2.4,2.9c0.6,1.2,0.9,2.6,0.9,4.3
		c0,1.5-0.3,2.8-0.8,3.9c-0.6,1.1-1.3,2.1-2.3,2.9c-1,0.8-2.1,1.4-3.3,1.8c-1.2,0.4-2.6,0.6-3.9,0.6H2.9V44.1z M6.9,58.8h2.1
		c0.9,0,1.8-0.1,2.6-0.3c0.8-0.2,1.5-0.5,2.1-0.9c0.6-0.4,1.1-1,1.4-1.7c0.3-0.7,0.5-1.6,0.5-2.6c0-0.9-0.2-1.7-0.5-2.4
		c-0.3-0.7-0.8-1.2-1.4-1.7c-0.6-0.4-1.2-0.8-2-1c-0.8-0.2-1.6-0.3-2.4-0.3H6.9V58.8z"/>
	<path class="st0" d="M28.7,44.1H32l8,18.4h-4.6l-1.6-3.9h-7.1l-1.5,3.9h-4.5L28.7,44.1z M30.2,49.4L28,55.2h4.5L30.2,49.4z"/>
	<path class="st0" d="M43.1,47.7h-5.3v-3.6h14.6v3.6h-5.3v14.8h-4.1V47.7z"/>
	<path class="st0" d="M58.1,44.1h3.4l8,18.4h-4.6l-1.6-3.9h-7.1l-1.5,3.9h-4.5L58.1,44.1z M59.6,49.4l-2.2,5.7h4.5L59.6,49.4z"/>
	<path class="st0" d="M77.2,44.1h4.6l4.5,12.1h0.1L91,44.1h4.3l-7.6,18.4h-3.2L77.2,44.1z"/>
	<path class="st0" d="M97.2,44.1h4.1v18.4h-4.1V44.1z"/>
	<path class="st0" d="M105.1,44.1h12.5v3.7h-8.5v3.4h8V55h-8v3.7h8.9v3.7h-13V44.1z"/>
	<path class="st0" d="M119.4,44.1h4.4l2.9,11.8h0.1l3.8-11.8h3.8l3.8,12.1h0.1l3.1-12.1h4.1l-5.4,18.4h-3.6l-4.1-12.7h-0.1
		l-4.1,12.7h-3.5L119.4,44.1z"/>
	<path class="st0" d="M147.5,44.1H160v3.7h-8.5v3.4h8V55h-8v3.7h8.9v3.7h-13V44.1z"/>
	<path class="st0" d="M163.8,44.1h7.1c0.9,0,1.8,0.1,2.7,0.3c0.8,0.2,1.6,0.5,2.2,0.9c0.6,0.4,1.1,1,1.5,1.7
		c0.4,0.7,0.6,1.6,0.6,2.7c0,1.3-0.3,2.4-1,3.3s-1.7,1.5-3,1.7l4.7,7.8h-4.9l-3.8-7.4h-2v7.4h-4.1V44.1z M167.8,51.7h2.4
		c0.4,0,0.7,0,1.2,0c0.4,0,0.8-0.1,1.1-0.2c0.3-0.1,0.6-0.3,0.8-0.6s0.3-0.7,0.3-1.2c0-0.5-0.1-0.8-0.3-1.1
		c-0.2-0.3-0.4-0.5-0.7-0.6c-0.3-0.1-0.6-0.2-1-0.3c-0.4-0.1-0.8-0.1-1.1-0.1h-2.7V51.7z"/>
</g>
</svg>
